
<svg width="203px" height="53px" viewBox="0 0 203 53" version="1.1" xmlns="http://www.w3.org/2000/svg" xmlns:xlink="http://www.w3.org/1999/xlink">
    <!-- Generator: Sketch 48.2 (47327) - http://www.bohemiancoding.com/sketch -->
    <desc>Created with Sketch.</desc>
    <defs>
        <polygon id="path-1" points="4.60656482 2 0.134162814 2 0.134162814 0.1883 4.60656482 0.1883 4.60656482 2"></polygon>
    </defs>
    <g id="Page-1" stroke="none" stroke-width="1" fill="none" fill-rule="evenodd">
        <g id="about-" transform="translate(-1387.000000, -802.000000)">
            <g id="bios-rotate" transform="translate(8.000000, 586.000000)">
                <g id="Page-1-Copy-5" transform="translate(1379.000000, 216.000000)">
                    <polygon id="Fill-1" fill="#EC3A3B" points="0 49.9484649 3.99503003 50 4 48.0526316 0 48"></polygon>
                    <polygon id="Fill-2" fill="#EC3A3B" points="10.9867714 50 11 48.0526027 7.00744109 48 7 49.9463014"></polygon>
                    <polygon id="Fill-3" fill="#EC3A3B" points="16.9793729 50 17 48.0526316 13.0156766 48 13 49.9484649"></polygon>
                    <g id="Group-71" transform="translate(19.000000, 0.000000)">
                        <path d="M4.96402412,50.6475 L4.99546131,48.8715 C4.99546131,48.8715 3.87944121,48.8485 2.76434573,48.8255 C1.64832563,48.8135 0.532305528,48.8005 0.532305528,48.8005 L0.505491457,50.5775 C0.505491457,50.5775 1.62058693,50.5885 2.73475779,50.6015 C3.84892864,50.6245 4.96402412,50.6475 4.96402412,50.6475" id="Fill-4" fill="#EC3A3B"></path>
                        <polygon id="Fill-6" fill="#EC3A3B" points="11.6047598 50.8193 11.6408201 49.0443 7.17766432 48.9273 7.14530251 50.7043"></polygon>
                        <polygon id="Fill-8" fill="#EC3A3B" points="18.2468824 50.9922 18.2875658 49.2162 13.8253347 49.1002 13.7883497 50.8762"></polygon>
                        <polygon id="Fill-10" fill="#EC3A3B" points="24.8866935 51.165 24.932 49.389 20.4706935 49.272 20.4281608 51.049"></polygon>
                        <polygon id="Fill-12" fill="#EC3A3B" points="31.5297407 51.3682 31.5768965 49.5912 27.1165146 49.4482 27.0693588 51.2242"></polygon>
                        <polygon id="Fill-14" fill="#EC3A3B" points="38.1718633 51.5801 38.2199437 49.8041 33.7595618 49.6611 33.712406 51.4371"></polygon>
                        <polygon id="Fill-16" fill="#EC3A3B" points="44.8135236 51.793 44.861604 50.017 40.4012221 49.874 40.3531417 51.649"></polygon>
                        <polygon id="Fill-18" fill="#EC3A3B" points="51.4570332 52 51.5051136 50.224 47.0456563 50.087 46.9975759 51.862"></polygon>
                        <polygon id="Fill-20" fill="#EC3A3B" points="58.1018372 52.1924 58.1462191 50.4174 53.6867618 50.2874 53.639606 52.0634"></polygon>
                        <polygon id="Fill-22" fill="#EC3A3B" points="64.7475658 52.3857 64.7882492 50.6087 60.3297166 50.4797 60.2862593 52.2557"></polygon>
                        <polygon id="Fill-24" fill="#EC3A3B" points="71.3905206 52.5781 71.4284302 50.8021 66.9698975 50.6731 66.9301387 52.4481"></polygon>
                        <polygon id="Fill-26" fill="#EC3A3B" points="78.0399477 52.7051 78.0713849 50.9291 73.6119276 50.8521 73.5758673 52.6301"></polygon>
                        <polygon id="Fill-28" fill="#EC3A3B" points="84.6883578 52.8174 84.7114734 51.0404 80.2529407 50.9644 80.2242774 52.7414"></polygon>
                        <polygon id="Fill-30" fill="#EC3A3B" points="91.3358432 52.9287 91.3524864 51.1517 86.8930291 51.0767 86.8717628 52.8537"></polygon>
                        <g id="Group-34" transform="translate(93.386935, 51.000000)">
                            <mask id="mask-2" fill="white">
                                <use xlink:href="#path-1"></use>
                            </mask>
                            <g id="Clip-33"></g>
                            <path d="M4.59916784,1.9893 L4.60656482,0.2133 C4.60656482,0.2133 3.49239397,0.2183 2.37822312,0.2233 L0.148956784,0.1883 L0.134162814,1.9663 C0.134162814,1.9663 1.25018291,1.9823 2.36620302,2.0003 C3.48222312,1.9953 4.59916784,1.9893 4.59916784,1.9893" id="Fill-32" fill="#EC3A3B" mask="url(#mask-2)"></path>
                        </g>
                        <polygon id="Fill-35" fill="#EC3A3B" points="104.637286 52.959 104.633588 51.183 100.175055 51.202 100.171357 52.98"></polygon>
                        <polygon id="Fill-37" fill="#EC3A3B" points="111.289303 52.9287 111.273584 51.1517 106.815976 51.1717 106.823373 52.9487"></polygon>
                        <polygon id="Fill-39" fill="#EC3A3B" points="117.939099 52.8975 117.912285 51.1205 113.454677 51.1415 113.474094 52.9185"></polygon>
                        <polygon id="Fill-41" fill="#EC3A3B" points="124.590746 52.6768 124.548213 50.9018 120.093379 51.0598 120.125741 52.8368"></polygon>
                        <polygon id="Fill-43" fill="#EC3A3B" points="131.240913 52.4404 131.182661 50.6654 126.727827 50.8234 126.774983 52.5994"></polygon>
                        <polygon id="Fill-45" fill="#EC3A3B" points="137.890247 52.2041 137.815353 50.4291 133.361443 50.5871 133.425242 52.3621"></polygon>
                        <path d="M144.535976,51.8301 L144.441664,50.0561 C144.441664,50.0561 143.331192,50.1421 142.22072,50.2261 C141.111172,50.3311 139.996076,50.3511 139.996076,50.3511 L140.076519,52.1261 C140.076519,52.1261 141.193463,52.1041 142.30671,52.0011 C143.421805,51.9151 144.535976,51.8301 144.535976,51.8301" id="Fill-47" fill="#EC3A3B"></path>
                        <polygon id="Fill-49" fill="#EC3A3B" points="151.176804 51.3213 151.059377 49.5503 146.615638 49.8893 146.718271 51.6633"></polygon>
                        <polygon id="Fill-51" fill="#EC3A3B" points="157.818927 50.8125 157.677459 49.0415 153.234645 49.3825 153.360394 51.1545"></polygon>
                        <path d="M164.460125,50.2695 L164.286295,48.5025 C164.286295,48.5025 164.011682,48.5365 163.599301,48.5865 C163.182295,48.6205 162.627522,48.6635 162.071823,48.7065 L159.850878,48.8755 L159.999743,50.6455 C159.999743,50.6455 161.114838,50.5595 162.229009,50.4745 C162.786557,50.4305 163.34318,50.3875 163.762034,50.3565 C164.180888,50.3035 164.460125,50.2695 164.460125,50.2695" id="Fill-53" fill="#EC3A3B"></path>
                        <path d="M171.100398,49.2588 L170.810066,47.5098 C170.810066,47.5098 170.539152,47.5638 170.132318,47.6438 C169.72271,47.7118 169.176257,47.8058 168.63073,47.8978 C167.537825,48.0788 166.438448,48.2278 166.438448,48.2268 L166.647413,49.9888 C166.647413,49.9888 167.762509,49.8408 168.875755,49.6548 C169.432378,49.5608 169.988076,49.4658 170.406006,49.3958 C170.823011,49.3138 171.100398,49.2588 171.100398,49.2588" id="Fill-55" fill="#EC3A3B"></path>
                        <path d="M177.674838,47.4775 L177.120064,45.8055 C177.120989,45.8055 176.875964,45.9205 176.482999,46.0415 C176.091883,46.1655 175.581491,46.3595 175.050758,46.5025 C173.998537,46.8135 172.922275,47.0575 172.922275,47.0575 L173.272708,48.7935 C173.272708,48.7935 174.381331,48.5415 175.482557,48.2175 C176.035481,48.0675 176.581009,47.8625 176.993391,47.7315 C177.405773,47.6045 177.674838,47.4775 177.674838,47.4775" id="Fill-57" fill="#EC3A3B"></path>
                        <path d="M183.397701,42.8545 L181.87762,42.1805 C181.87762,42.1805 181.777761,42.3935 181.626123,42.7115 C181.520716,42.8605 181.395891,43.0325 181.26367,43.2175 C181.119429,43.3965 180.924334,43.5635 180.754203,43.7475 C180.366786,44.0775 179.962726,44.4055 179.610444,44.5965 C179.271108,44.8015 179.044575,44.9395 179.044575,44.9395 L179.782424,46.5275 C179.782424,46.5275 180.044092,46.3705 180.436133,46.1325 C180.832796,45.9135 181.335791,45.5185 181.819369,45.0985 C182.0496,44.8605 182.292776,44.6435 182.493419,44.3955 C182.682042,44.1305 182.858645,43.8835 183.009359,43.6715 C183.252535,43.1895 183.397701,42.8545 183.397701,42.8545" id="Fill-59" fill="#EC3A3B"></path>
                        <path d="M181.458211,35.3779 L180.166513,36.4779 C180.166513,36.4779 180.330171,36.7039 180.559477,37.0539 C180.807276,37.3959 181.079116,37.8739 181.33801,38.3569 C181.831759,39.3349 182.066613,40.3439 182.02593,40.3379 L183.64402,40.0339 C183.64402,40.0339 183.632925,39.9459 183.612583,39.7919 C183.579296,39.6439 183.518271,39.4399 183.449849,39.1919 C183.331497,38.6829 183.055035,38.0889 182.778573,37.5029 C182.478995,36.9389 182.163698,36.3899 181.893709,36.0169 C181.637588,35.6279 181.458211,35.3789 181.458211,35.3779" id="Fill-61" fill="#EC3A3B"></path>
                        <path d="M176.657198,30.1709 L175.586484,31.5199 L176.110746,32.0029 C176.415871,32.3019 176.822706,32.6999 177.22954,33.0989 C177.620655,33.5109 178.012695,33.9219 178.306726,34.2309 C178.599831,34.5399 178.776434,34.7609 178.776434,34.7609 L179.970123,33.5399 C179.970123,33.5399 179.780575,33.3039 179.474525,32.9809 C179.168474,32.6589 178.758866,32.2299 178.351108,31.7999 C177.929479,31.3879 177.509701,30.9769 177.194404,30.6669 C176.871711,30.3699 176.657198,30.1709 176.657198,30.1709" id="Fill-63" fill="#EC3A3B"></path>
                        <path d="M171.389343,25.6816 L170.413865,27.1116 C170.413865,27.1116 171.313524,27.8136 172.185443,28.5506 C173.070308,29.2726 173.924659,30.0286 173.924659,30.0286 L174.955614,28.6456 C174.955614,28.6456 174.08277,27.8726 173.185885,27.1416 C172.299172,26.3916 171.389343,25.6806 171.389343,25.6816" id="Fill-65" fill="#EC3A3B"></path>
                        <path d="M165.934621,21.5186 L165.010923,22.9886 C165.010923,22.9886 165.926299,23.6686 166.841676,24.3506 L168.656712,25.7336 L169.612772,24.2886 C169.612772,24.2886 168.69647,23.5886 167.780169,22.8916 C166.857395,22.2056 165.934621,21.5186 165.934621,21.5186" id="Fill-67" fill="#EC3A3B"></path>
                        <path d="M161.523707,38.0547 C161.73637,25.0477 152.026903,15.4687 151.660752,2.7227 C150.685274,3.5267 149.709797,4.3297 148.73432,5.1337 C158.037877,7.8167 167.324792,10.5417 176.473013,13.7997 C179.313455,14.8107 180.520088,9.9817 177.702762,8.9777 C168.554541,5.7207 159.266702,2.9947 149.964068,0.3117 C148.547546,-0.0963 146.99048,1.0797 147.037636,2.7227 C147.405636,15.5477 157.109556,25.2747 156.900591,38.0547 C156.847887,41.2807 161.471003,41.2757 161.523707,38.0547" id="Fill-69" fill="#E91D1F"></path>
                    </g>
                </g>
            </g>
        </g>
    </g>
</svg>