
<svg width="102px" height="111px" viewBox="0 0 102 111" version="1.1" xmlns="http://www.w3.org/2000/svg" xmlns:xlink="http://www.w3.org/1999/xlink">
    <!-- Generator: Sketch 48.2 (47327) - http://www.bohemiancoding.com/sketch -->
    <desc>Created with Sketch.</desc>
    <defs></defs>
    <g id="Page-1" stroke="none" stroke-width="1" fill="none" fill-rule="evenodd">
        <g id="home" transform="translate(-122.000000, -2808.000000)">
            <g id="section-2" transform="translate(10.000000, 1927.000000)">
                <g id="Page-1" transform="translate(150.000000, 946.500000) rotate(-45.000000) translate(-150.000000, -946.500000) translate(96.000000, 895.000000)">
                    <polygon id="Fill-1" fill="#EC3A3B" points="93.9330163 0.000120721784 92.2507583 2.22562681 93.1078829 2.87148835 94.7804832 0.657450834"></polygon>
                    <g id="Group-142" transform="translate(0.000000, 3.129109)">
                        <path d="M89.7888789,2.44389179 L90.6598866,3.06983424 L91.4681189,1.94289639 C91.8665008,1.3749004 92.2890271,0.82501267 92.2890271,0.82501267 L91.4276771,0.186394434 C91.4276771,0.186394434 91.0027365,0.739300204 90.6019401,1.31031424 C90.1957113,1.87710302 89.7888789,2.44389179 89.7888789,2.44389179" id="Fill-2" fill="#EC3A3B"></path>
                        <path d="M87.4003984,5.84390011 L88.2852891,6.44992346 C88.2852891,6.44992346 88.6740133,5.87589138 89.0621338,5.3018593 C89.4659482,4.73688135 89.8691589,4.17250701 89.8691589,4.17250701 L88.993926,3.55320426 C88.993926,3.55320426 88.5883008,4.12120025 88.182072,4.68859264 C87.7909334,5.26624637 87.4003984,5.84390011 87.4003984,5.84390011" id="Fill-4" fill="#EC3A3B"></path>
                        <path d="M85.0888177,9.29877648 L85.988195,9.88306991 C85.988195,9.88306991 86.3515676,9.29213678 86.747535,8.72293357 L87.5243797,7.5748694 L86.6346602,6.97548575 C86.6346602,6.97548575 86.2435216,7.55313948 85.8529866,8.13079322 C85.4546047,8.70422169 85.0888177,9.29877648 85.0888177,9.29877648" id="Fill-6" fill="#EC3A3B"></path>
                        <polygon id="Fill-8" fill="#EC3A3B" points="82.8612594 12.8090038 83.7757269 13.3697565 85.261812 11.0289611 84.3570023 10.4525146"></polygon>
                        <polygon id="Fill-10" fill="#EC3A3B" points="80.7444633 16.3893704 81.674021 16.9247716 83.0840514 14.5381019 82.1653587 13.9857997"></polygon>
                        <polygon id="Fill-12" fill="#EC3A3B" points="78.728832 20.0263556 79.67348 20.5333871 81.0014196 18.1014468 80.0664294 17.5744962"></polygon>
                        <path d="M76.8207035,23.7234603 L77.7810453,24.2009149 C77.7810453,24.2009149 78.090093,23.5810085 78.3991408,22.9611022 C78.5536647,22.6514508 78.7081886,22.3411958 78.8240815,22.1088064 C78.9369564,21.8746061 79.023876,21.7243075 79.023876,21.7243075 L78.0737956,21.2263302 C78.0737956,21.2263302 77.9868759,21.377836 77.8727938,21.6138471 C77.7556937,21.8486509 77.5999626,22.1607168 77.4442315,22.4733862 C77.1327693,23.098725 76.8207035,23.7234603 76.8207035,23.7234603" id="Fill-14" fill="#EC3A3B"></path>
                        <path d="M75.0299165,27.4795375 L76.0059522,27.9237936 C76.0059522,27.9237936 76.2896484,27.2924187 76.5733445,26.6616474 C76.7103638,26.3429419 76.8660949,26.0332905 76.983195,25.8021083 C77.0990879,25.5691152 77.1763499,25.4139877 77.1763499,25.4139877 L76.2111792,24.9473981 C76.2111792,24.9473981 76.1333136,25.1031292 76.0162135,25.337933 C75.8985098,25.5721333 75.7409678,25.8835955 75.6027414,26.205319 L75.0299165,27.4795375 Z" id="Fill-16" fill="#EC3A3B"></path>
                        <path d="M73.3658875,31.2945269 L74.3576169,31.7037738 C74.3576169,31.7037738 74.4215995,31.5432138 74.5175733,31.3017702 C74.6147543,31.0609303 74.7354761,30.7367923 74.8833603,30.4235192 C75.1670565,29.7915407 75.4507527,29.1601658 75.4507527,29.1601658 L74.4698882,28.7267746 C74.4698882,28.7267746 74.1831739,29.3641856 73.8970633,30.000993 C73.7479719,30.3178877 73.6260429,30.6456473 73.5276547,30.8889017 C73.4304736,31.1315525 73.3658875,31.2945269 73.3658875,31.2945269" id="Fill-18" fill="#EC3A3B"></path>
                        <path d="M71.8388776,35.168489 L72.8450937,35.5397084 C72.8450937,35.5397084 72.8951932,35.373716 72.9923743,35.132876 C73.0883481,34.8920361 73.2163132,34.5709161 73.3442783,34.2491926 C73.6002085,33.6063491 73.8561386,32.962902 73.8561386,32.962902 L72.8595803,32.5663309 C72.8595803,32.5663309 72.6012357,33.2158141 72.3428911,33.8652973 C72.2137188,34.1900389 72.0845465,34.5141769 71.9873654,34.7580349 C71.8895808,35.0012893 71.8388776,35.168489 71.8388776,35.168489" id="Fill-20" fill="#EC3A3B"></path>
                        <polygon id="Fill-22" fill="#EC3A3B" points="70.481663 39.1072786 71.5023657 39.4362455 72.4041574 36.8196008 71.3931124 36.4628679"></polygon>
                        <polygon id="Fill-24" fill="#EC3A3B" points="69.3035995 43.1049805 70.3381851 43.3880731 71.1053721 40.730383 70.0804441 40.41711"></polygon>
                        <polygon id="Fill-26" fill="#EC3A3B" points="68.3059546 47.1510314 69.3526125 47.3852317 69.9737261 44.6907215 68.9349151 44.4233227"></polygon>
                        <path d="M67.5013439,51.2430774 L68.5582632,51.4235564 C68.5582632,51.4235564 68.6741561,50.742082 68.7894454,50.0612111 C68.848599,49.7213793 68.9071491,49.3803402 68.9512126,49.1250137 C69.0097626,48.8721015 69.0483936,48.7036946 69.0483936,48.7036946 L67.9981141,48.486999 C67.9981141,48.486999 67.9588795,48.6578204 67.8997258,48.9137505 C67.8550588,49.1720952 67.7953015,49.5173595 67.7355442,49.8626238 C67.6184441,50.5519451 67.5013439,51.2430774 67.5013439,51.2430774" id="Fill-28" fill="#EC3A3B"></path>
                        <path d="M66.9041936,55.3704948 L67.9695634,55.4942346 C67.9695634,55.4942346 68.0419964,54.8079313 68.1144295,54.1210243 C68.1452136,53.7763636 68.2230791,53.4389462 68.2598993,53.1824124 C68.3033591,52.9270859 68.3323323,52.7568682 68.3323323,52.7568682 L67.2723951,52.5938938 C67.2723951,52.5938938 67.2428182,52.7671295 67.1987548,53.0254741 C67.161331,53.2856296 67.0828619,53.6278758 67.0520778,53.9767618 C66.9778339,54.6739301 66.9041936,55.3704948 66.9041936,55.3704948" id="Fill-30" fill="#EC3A3B"></path>
                        <path d="M66.5266363,59.5262215 L67.5974385,59.5896004 C67.5974385,59.5896004 67.6040782,59.4175719 67.6143395,59.1586236 C67.6203756,58.8996754 67.6366731,58.5550147 67.6813401,58.2121648 C67.7543768,57.5258615 67.8268099,56.8383509 67.8268099,56.8383509 L66.7596293,56.7339266 L66.6123487,58.1276596 C66.5670781,58.4753383 66.550177,58.8248279 66.5441409,59.0873978 C66.5338796,59.3505713 66.5266363,59.5262215 66.5266363,59.5262215" id="Fill-32" fill="#EC3A3B"></path>
                        <path d="M66.380744,63.6984267 L67.453357,63.6996339 C67.453357,63.6996339 67.436456,63.5276053 67.4527534,63.2686571 C67.4630148,63.0097089 67.4768978,62.6650482 67.4901772,62.3203875 L67.544502,60.9411411 L66.4730961,60.8970777 L66.4181677,62.298054 C66.4042847,62.6481472 66.3910053,62.9982403 66.380744,63.2608102 C66.3638429,63.5227765 66.380744,63.6984267 66.380744,63.6984267" id="Fill-34" fill="#EC3A3B"></path>
                        <polygon id="Fill-36" fill="#EC3A3B" points="66.5095541 67.8776941 67.5797527 67.8046574 67.4952475 65.0485791 66.4226344 65.0721198"></polygon>
                        <path d="M67.0680735,72.0505029 L68.1201638,71.8410506 C68.1201638,71.8410506 67.9843518,71.1680267 67.8763058,70.4913811 C67.8256027,70.1527565 67.7748995,69.8147355 67.7368721,69.5600125 C67.7078989,69.3064968 67.6879798,69.1380899 67.6879798,69.1380899 L66.6220065,69.2594153 C66.6220065,69.2594153 66.6425292,69.4362727 66.6739168,69.7000498 C66.7131514,69.9632233 66.7656654,70.3121092 66.8175758,70.6622024 C66.9286398,71.3587671 67.0680735,72.0505029 67.0680735,72.0505029" id="Fill-38" fill="#EC3A3B"></path>
                        <path d="M68.0757985,76.1171973 L69.1049518,75.8153928 L68.9854372,75.4025243 C68.9124005,75.1550447 68.8176339,74.8236634 68.7355431,74.4904713 C68.6504342,74.1566755 68.5647218,73.8234834 68.5007392,73.5735893 C68.4427928,73.322488 68.4041618,73.1552883 68.4041618,73.1552883 L67.3593148,73.3973355 C67.3593148,73.3973355 67.399153,73.5681568 67.4583066,73.8258978 C67.5234964,74.0812244 67.6110197,74.4216598 67.698543,74.7626989 C67.781841,75.1043415 67.879022,75.4417589 67.9538695,75.6952747 C68.0269062,75.9481868 68.0757985,76.1171973 68.0757985,76.1171973" id="Fill-40" fill="#EC3A3B"></path>
                        <path d="M69.4041003,80.085443 L70.4072984,79.7063766 C70.4072984,79.7063766 70.3463339,79.5452131 70.2545853,79.3037695 C70.1682692,79.0605151 70.0529799,78.7357735 69.9382942,78.4116355 C69.6992651,77.7645667 69.5006778,77.1054258 69.5006778,77.1054258 L68.4793715,77.4319782 C68.4793715,77.4319782 68.6821841,78.1056058 68.9254385,78.7647467 C69.0425386,79.0955244 69.1602423,79.4263021 69.2483692,79.674989 C69.341325,79.921865 69.4041003,80.085443 69.4041003,80.085443" id="Fill-42" fill="#EC3A3B"></path>
                        <path d="M71.0336633,83.9399689 L72.0042665,83.4842441 C72.0042665,83.4842441 71.7193631,82.8570945 71.433856,82.231152 C71.1652501,81.5967591 70.8966441,80.9623661 70.8966441,80.9623661 L69.9031038,81.3667841 C69.9031038,81.3667841 70.1771423,82.0138528 70.4511807,82.660318 C70.7427238,83.3001434 71.0336633,83.9399689 71.0336633,83.9399689" id="Fill-44" fill="#EC3A3B"></path>
                        <path d="M72.9742056,87.6529484 L73.9013489,87.113322 C73.9013489,87.113322 73.8144293,86.9654379 73.6840497,86.7427062 C73.5603099,86.5169564 73.3955247,86.2157556 73.2301358,85.9139511 C72.8909076,85.3163783 72.5945356,84.6946611 72.5945356,84.6940575 L71.6366083,85.176341 C71.6366083,85.176341 71.93962,85.8113376 72.2866951,86.4246043 C72.4563092,86.733652 72.6247161,87.0414926 72.751474,87.2732784 C72.8854751,87.500839 72.9742056,87.6529484 72.9742056,87.6529484" id="Fill-46" fill="#EC3A3B"></path>
                        <path d="M75.2769133,91.1679442 L76.1388668,90.529326 C76.1388668,90.529326 75.732638,89.9782311 75.3439139,89.4144603 C74.9684692,88.8410319 74.5930244,88.2669998 74.5930244,88.2669998 L73.6839894,88.8368066 C73.6839894,88.8368066 74.0702991,89.4271361 74.4572124,90.0174656 C74.8574051,90.5993446 75.2769133,91.1685478 75.2769133,91.1679442" id="Fill-48" fill="#EC3A3B"></path>
                        <path d="M78.0512206,94.3923024 L78.7622719,93.5864844 C78.7622719,93.5864844 78.2745559,93.1277417 77.8381467,92.6146741 C77.6160186,92.361762 77.3860436,92.1197148 77.2260872,91.9193166 C77.0667345,91.7189185 76.9598957,91.5861245 76.9598957,91.5861245 L76.1269154,92.2615629 C76.1269154,92.2615629 76.2379794,92.3997893 76.4039719,92.6074308 C76.5693607,92.8150722 76.8192548,93.079453 77.0564731,93.3486625 C77.5236664,93.897343 78.0512206,94.3923024 78.0512206,94.3923024" id="Fill-50" fill="#EC3A3B"></path>
                        <path d="M81.4020348,97.0690665 L81.8662101,96.0821659 C81.8662101,96.0821659 81.7225511,95.9952462 81.50827,95.8648667 C81.2982141,95.7266402 81.0332298,95.5214132 80.7616058,95.3252403 C80.4863601,95.1332927 80.2243938,94.9250476 80.0390859,94.7548299 C79.8483455,94.5912519 79.7215876,94.481395 79.7215876,94.481395 L79.086591,95.3536099 C79.086591,95.3536099 79.2242138,95.4719173 79.4294409,95.6475675 C79.629839,95.8298574 79.9129316,96.052589 80.2099072,96.2590233 C80.5032611,96.4690792 80.7893718,96.6881892 81.0157251,96.8360734 L81.4020348,97.0690665 Z" id="Fill-52" fill="#EC3A3B"></path>
                        <path d="M85.3422731,98.7136593 L85.5227522,97.6247488 C85.5227522,97.6241452 84.8630076,97.5004054 84.2394796,97.2468897 C83.9213777,97.1418617 83.6081047,97.0229507 83.3865802,96.902229 C83.1602269,96.7929757 83.0093246,96.7211463 83.0093246,96.7211463 L82.6350871,97.7502995 C82.6350871,97.7502995 82.7980615,97.828165 83.0419195,97.944058 C83.2809487,98.072023 83.6177624,98.1993845 83.9606123,98.3116558 C84.6318254,98.5802618 85.3422731,98.7130557 85.3422731,98.7136593" id="Fill-54" fill="#EC3A3B"></path>
                        <path d="M89.6017602,98.8126512 L89.4828492,97.7164974 C89.4828492,97.7164974 89.3174604,97.7436598 89.0693771,97.783498 C88.9456373,97.8022099 88.8007711,97.8305795 88.6456436,97.8486877 C88.4887053,97.8541202 88.320902,97.8589491 88.1537024,97.8643816 C87.8186994,97.8655888 87.4830929,97.9060306 87.2331988,97.8716249 C86.9833047,97.8468769 86.8167086,97.8305795 86.8167086,97.8305795 L86.7334106,98.9339766 C86.7334106,98.9339766 86.9126824,98.9508776 87.181892,98.9774364 C87.450498,99.0124457 87.8120597,98.9707967 88.171207,98.9695895 C88.3516861,98.9635534 88.5315616,98.9575173 88.7005721,98.9526885 C88.8683753,98.933373 89.0235028,98.9031925 89.1569004,98.883877 C89.4236955,98.8410208 89.6017602,98.8126512 89.6017602,98.8126512" id="Fill-56" fill="#EC3A3B"></path>
                        <path d="M93.6171478,97.3596438 L93.2097118,96.3510133 C93.2471355,96.42405 90.7868256,97.4960594 90.7548343,97.4067253 L90.9709263,98.4841672 C91.0041248,98.5795374 93.6563824,97.4393202 93.6171478,97.3596438" id="Fill-58" fill="#EC3A3B"></path>
                        <path d="M97.1244174,94.8891932 L96.4592404,94.0471588 C96.4592404,94.0471588 95.9425511,94.4733067 95.4252583,94.9000582 C94.8783886,95.2863679 94.3315189,95.6744884 94.3315189,95.6744884 L94.8276855,96.636641 C94.8276855,96.636641 95.4174114,96.2207545 96.0077409,95.8054716 L97.1244174,94.8891932 Z" id="Fill-60" fill="#EC3A3B"></path>
                        <path d="M100.138961,91.9006651 L99.3246926,91.2022896 C99.3246926,91.2022896 98.8659499,91.706303 98.4072071,92.2109201 C98.1856826,92.4710755 97.927338,92.6913928 97.7474625,92.870061 C97.5633618,93.0457112 97.4408292,93.163415 97.4408292,93.163415 L98.1687816,93.950521 C98.1687816,93.950521 98.2979539,93.8273848 98.4911087,93.643284 C98.6806419,93.4543545 98.9534731,93.2207578 99.1834481,92.9509446 C99.6609028,92.4252012 100.138961,91.9006651 100.138961,91.9006651" id="Fill-62" fill="#EC3A3B"></path>
                        <path d="M102.628546,88.4894297 L101.7177,87.9238481 C101.7177,87.9238481 101.635609,88.0741467 101.494969,88.2872207 C101.350102,88.4984838 101.156948,88.7797655 100.964396,89.0604437 C100.593177,89.6344758 100.159182,90.16203 100.159786,90.16203 L101.00846,90.8169456 C101.007856,90.8169456 101.459356,90.2676615 101.845665,89.6725031 C102.046063,89.3791492 102.246462,89.0863989 102.39676,88.8672888 C102.543437,88.6457644 102.628546,88.4894297 102.628546,88.4894297" id="Fill-64" fill="#EC3A3B"></path>
                        <path d="M104.58436,84.752849 L103.602288,84.3212686 L103.431467,84.7136144 C103.335493,84.9508327 103.187005,85.2586733 103.026445,85.5604777 C102.871318,85.8646966 102.71619,86.1689155 102.599694,86.3976833 C102.486819,86.6270547 102.399295,86.7737317 102.399295,86.7737317 L103.3367,87.2946462 C103.3367,87.2946462 103.427241,87.1425367 103.544945,86.9041112 C103.665667,86.6674965 103.82683,86.351809 103.987994,86.0367252 C104.153383,85.7228485 104.307303,85.404143 104.407502,85.1584742 C104.513737,84.9146162 104.58436,84.752849 104.58436,84.752849" id="Fill-66" fill="#EC3A3B"></path>
                        <path d="M106.024752,80.7981241 L104.995598,80.4945088 C104.995598,80.4945088 104.792786,81.1488209 104.590577,81.8031329 L104.116744,83.0870091 L105.116924,83.4751296 C105.116924,83.4751296 105.361385,82.8111598 105.606451,82.14719 C105.815299,81.4729589 106.024752,80.7981241 106.024752,80.7981241" id="Fill-68" fill="#EC3A3B"></path>
                        <path d="M106.988775,76.7072854 L105.93246,76.5201666 C105.93246,76.5201666 105.797855,77.1931905 105.66325,77.8656109 C105.602286,78.2036319 105.516573,78.5356168 105.452591,78.7849073 C105.389815,79.0335941 105.347563,79.2001902 105.347563,79.2001902 L106.387581,79.4639673 C106.387581,79.4639673 106.430437,79.2925424 106.495023,79.0360086 C106.560817,78.7794748 106.649547,78.4372285 106.712323,78.090757 C106.850549,77.3990212 106.988775,76.7072854 106.988775,76.7072854" id="Fill-70" fill="#EC3A3B"></path>
                        <path d="M107.511923,72.5450397 L106.442932,72.4605345 C106.442932,72.4605345 106.436292,72.632563 106.410337,72.8890968 C106.382571,73.145027 106.345751,73.4872732 106.308931,73.8289159 C106.246759,74.514012 106.136902,75.1918648 106.137506,75.1918648 L107.199254,75.3439743 C107.19865,75.3439743 107.310922,74.6480132 107.374904,73.9466196 C107.412328,73.5965264 107.450355,73.2464333 107.478121,72.9838634 C107.505284,72.7212935 107.511923,72.5450397 107.511923,72.5450397" id="Fill-72" fill="#EC3A3B"></path>
                        <path d="M107.660471,68.3604605 L106.587858,68.365893 C106.587858,68.365893 106.604156,69.0540072 106.575786,69.7421213 C106.566732,70.0861784 106.557678,70.4302355 106.551038,70.6879765 C106.547417,70.9463211 106.531119,71.1171424 106.531119,71.1171424 L107.602525,71.1714672 C107.602525,71.1714672 107.618822,70.9958171 107.622444,70.7326436 C107.629687,70.4688665 107.638742,70.1175661 107.647796,69.7662657 C107.676769,69.0630613 107.660471,68.3604605 107.660471,68.3604605" id="Fill-74" fill="#EC3A3B"></path>
                        <path d="M107.479811,64.1805895 L106.41082,64.2669055 C106.41082,64.2669055 106.424703,64.4377269 106.445226,64.6960715 C106.467559,64.9526053 106.494722,65.297266 106.50619,65.6413231 C106.538181,66.3294372 106.570173,67.0169478 106.570173,67.0169478 L107.642182,66.9843529 L107.576992,65.5809622 C107.56492,65.2302654 107.537758,64.8807758 107.514821,64.6182059 C107.493694,64.3562397 107.479811,64.1805895 107.479811,64.1805895" id="Fill-76" fill="#EC3A3B"></path>
                        <path d="M107.005616,60.0284241 L105.945075,60.185966 L106.136419,61.551933 C106.213681,62.2376327 106.290943,62.9227288 106.290943,62.9227288 L107.35752,62.812872 C107.35752,62.812872 107.279655,62.1151001 107.200582,61.4185354 C107.103401,60.7231779 107.005616,60.0284241 107.005616,60.0284241" id="Fill-78" fill="#EC3A3B"></path>
                        <path d="M106.264928,55.9175455 L105.215855,56.1402772 C105.215855,56.1402772 105.354685,56.8169228 105.492912,57.4923612 C105.61303,58.1720249 105.733148,58.8516885 105.733148,58.8516885 L106.790671,58.6724166 C106.790671,58.6724166 106.668138,57.981888 106.546209,57.2907558 C106.405568,56.6050561 106.264928,55.9175455 106.264928,55.9175455" id="Fill-80" fill="#EC3A3B"></path>
                        <path d="M105.278208,51.8620179 L104.244226,52.1469213 C104.244226,52.1469213 104.419876,52.8139092 104.595526,53.4821043 C104.772987,54.1484885 104.920268,54.8227197 104.920268,54.8227197 L105.965115,54.5794653 C105.965115,54.5794653 105.814816,53.8943692 105.634941,53.2165164 C105.456273,52.5392671 105.278208,51.8620179 105.278208,51.8620179" id="Fill-82" fill="#EC3A3B"></path>
                        <path d="M104.050045,47.8701711 L103.034775,48.2154354 C103.034171,48.2154354 103.252678,48.8703511 103.462734,49.5276812 C103.68124,50.1832005 103.868359,50.8483775 103.868359,50.8483775 L104.896908,50.5429514 C104.896908,50.5429514 104.706772,49.8687202 104.485247,49.2035432 C104.272173,48.5353481 104.050045,47.8701711 104.050045,47.8701711" id="Fill-84" fill="#EC3A3B"></path>
                        <path d="M102.586112,43.9596907 L101.593176,44.3653159 C101.593176,44.3653159 101.863592,45.0009161 102.102018,45.6485885 C102.349498,46.2926392 102.58732,46.9409151 102.58732,46.9409151 L103.59595,46.5757318 C103.59595,46.5757318 103.353903,45.917798 103.102802,45.263486 C102.860754,44.6055522 102.586112,43.9596907 102.586112,43.9596907" id="Fill-86" fill="#EC3A3B"></path>
                        <path d="M100.883151,40.1423472 L99.9209979,40.6161802 L100.512535,41.8590109 L101.07208,43.1205536 L102.056566,42.6944057 C102.056566,42.6944057 101.772266,42.0527694 101.487363,41.4123403 C101.184955,40.7767401 100.883151,40.1423472 100.883151,40.1423472" id="Fill-88" fill="#EC3A3B"></path>
                        <path d="M98.858948,36.4711977 L97.9438769,37.0307432 C97.9438769,37.0307432 98.2933664,37.6228835 98.642856,38.2150239 C98.8227315,38.5077742 98.9754445,38.8162184 99.0991843,39.0419681 C99.2211133,39.2689251 99.3019969,39.4210345 99.3019969,39.4210345 L100.249663,38.9188319 C100.249663,38.9188319 100.166969,38.7631008 100.042021,38.5301078 C99.9152636,38.2983219 99.7583253,37.9832381 99.5742246,37.6832444 L98.858948,36.4711977 Z" id="Fill-90" fill="#EC3A3B"></path>
                        <path d="M96.4960605,33.0015933 L95.6425575,33.6516801 C95.6425575,33.6516801 95.7524143,33.7838705 95.8990913,33.9951336 C96.0493899,34.2039823 96.2491845,34.4828496 96.448979,34.7617169 C96.6505844,35.0399806 96.8509826,35.3182443 96.986191,35.5373544 C97.1268318,35.7534464 97.2203912,35.8977089 97.2203912,35.8977089 L98.1173541,35.3091902 C98.1173541,35.3091902 98.0213803,35.161306 97.8771177,34.9397815 C97.7382877,34.7158426 97.5318534,34.4291284 97.3254192,34.1430178 C97.1195885,33.8563035 96.9143615,33.5695893 96.7598376,33.3553081 C96.6089354,33.1386125 96.4960605,33.0015933 96.4960605,33.0015933" id="Fill-92" fill="#EC3A3B"></path>
                        <path d="M93.7477084,29.8149607 L92.9799178,30.5640394 C92.9799178,30.5640394 93.0994324,30.686572 93.2781007,30.8700691 C93.4615978,31.0499446 93.6915728,31.3028567 93.9143045,31.5630122 C94.1400542,31.8201496 94.3658039,32.0778906 94.535418,32.2704418 C94.7080502,32.4605786 94.8088529,32.5994087 94.8088529,32.5994087 L95.6370043,31.9179342 C95.6370043,31.9179342 95.5331836,31.7754825 95.3545153,31.578706 C95.1800724,31.3795151 94.9464757,31.1139271 94.7140863,30.8483392 C94.4841113,30.5803368 94.2456857,30.3183706 94.0561525,30.1318554 C93.8714482,29.9423222 93.7477084,29.8149607 93.7477084,29.8149607" id="Fill-94" fill="#EC3A3B"></path>
                        <path d="M90.6082177,27.0014792 L89.953302,27.850757 C89.953302,27.850757 90.0927357,27.9497488 90.2870977,28.1163449 C90.4844779,28.2787157 90.7476513,28.4966185 91.0108248,28.7139177 C91.2794308,28.9245772 91.5226852,29.1654172 91.712822,29.3368421 C91.901148,29.5106815 92.0266986,29.6265744 92.0266986,29.6265744 L92.7600835,28.8449008 C92.7600835,28.8449008 92.6303076,28.7241791 92.4347383,28.5443036 C92.2379618,28.366239 91.9856532,28.1175521 91.7067859,27.8972348 C91.4333511,27.6714851 91.1605198,27.446339 90.9552928,27.2767249 C90.7524802,27.1046963 90.6082177,27.0020828 90.6082177,27.0014792" id="Fill-96" fill="#EC3A3B"></path>
                        <path d="M87.0714919,24.6889931 L86.5566135,25.6300194 C86.5566135,25.6300194 87.1523755,25.9614007 87.7354618,26.3139083 C88.3064758,26.6869386 88.8774898,27.0599689 88.8774898,27.0599689 L89.4889457,26.1780963 C89.4889457,26.1780963 88.8943909,25.7899757 88.2998361,25.4024588 C87.6926055,25.0342574 87.0714919,24.6889931 87.0714919,24.6889931" id="Fill-98" fill="#EC3A3B"></path>
                        <path d="M83.2105075,22.9689491 L82.8537746,23.9805977 C82.8537746,23.9805977 83.013731,24.0379405 83.2533637,24.1260674 C83.4942037,24.2129871 83.8153236,24.325862 84.1255786,24.46771 C84.4388516,24.6017112 84.7521247,24.736316 84.9863249,24.8377223 C85.219318,24.9427503 85.3696166,25.0224266 85.3696166,25.0224266 L85.8337919,24.0560488 C85.8337919,24.0560488 85.6768535,23.9721471 85.4342028,23.8622903 C85.1897411,23.757866 84.8631887,23.6172251 84.5366363,23.4771878 C84.2131019,23.3299072 83.878099,23.2103927 83.6276013,23.1210586 C83.3771036,23.0299136 83.2105075,22.9689491 83.2105075,22.9689491" id="Fill-100" fill="#EC3A3B"></path>
                        <path d="M79.1311373,21.8784692 L78.9331536,22.9323704 C78.9331536,22.9323704 79.1009569,22.9643617 79.3526618,23.0126504 C79.6055739,23.0536958 79.9369552,23.1339758 80.2677329,23.2178774 C80.5985106,23.3011755 80.9317027,23.3742121 81.1773716,23.4466452 C81.4218332,23.5208891 81.5848076,23.5697814 81.5848076,23.5697814 L81.8890265,22.5412318 C81.8890265,22.5412318 81.7194124,22.4899251 81.4640858,22.4126631 C81.2087592,22.3378156 80.8622877,22.2617609 80.5182306,22.1742376 C80.1741736,22.0885251 79.8289092,22.0046235 79.5663394,21.9617673 C79.3055803,21.9116677 79.1311373,21.8784692 79.1311373,21.8784692" id="Fill-102" fill="#EC3A3B"></path>
                        <path d="M74.9439023,21.3944956 L74.8925955,22.4652978 C74.8925955,22.4659014 75.577088,22.488235 76.2567517,22.5612716 C76.9394334,22.6083531 77.6136645,22.7176063 77.6136645,22.7176063 L77.7615487,21.6558583 C77.7615487,21.6552547 77.0613624,21.5423798 76.3551399,21.4928839 C75.6507283,21.4174327 74.9439023,21.3944956 74.9439023,21.3944956" id="Fill-104" fill="#EC3A3B"></path>
                        <path d="M70.7389815,21.4458024 L70.8144326,22.5147938 C70.8144326,22.5147938 70.9846503,22.4954783 71.2417877,22.4858205 C71.4983215,22.4749556 71.8411713,22.4604689 72.1834176,22.4459823 C72.5262675,22.4254596 72.8685137,22.4290813 73.1256511,22.4290813 L73.5536098,22.4290813 L73.5608532,21.3564682 L73.119615,21.3564682 C72.8546307,21.3564682 72.5009159,21.3534502 72.1484083,21.3739729 C71.7959007,21.3890631 71.4433931,21.4041533 71.1790124,21.4150183 C70.9146317,21.4258833 70.7389815,21.4458024 70.7389815,21.4458024" id="Fill-106" fill="#EC3A3B"></path>
                        <path d="M66.5732349,21.948005 L66.7525067,23.0055278 C66.7525067,23.0055278 67.4315667,22.8998962 68.1112304,22.7942647 C68.7927049,22.7127775 69.4747829,22.6306867 69.4747829,22.6306867 L69.3631153,21.5635061 C69.3631153,21.5635061 68.6635326,21.6480113 67.9639498,21.731913 C67.2685923,21.839959 66.5732349,21.948005 66.5732349,21.948005" id="Fill-108" fill="#EC3A3B"></path>
                        <path d="M62.4802835,22.8239622 L62.7440606,23.8639804 C62.7440606,23.8639804 62.9112603,23.8211242 63.161758,23.7577452 C63.4116521,23.6913483 63.746655,23.6128791 64.0834688,23.540446 C64.4190754,23.4649949 64.7552855,23.390751 65.0075941,23.335219 C65.2605062,23.2851195 65.4295167,23.251921 65.4295167,23.251921 L65.2200644,22.2004342 C65.2200644,22.2004342 65.0474322,22.2336327 64.7890876,22.2843359 C64.5313466,22.3416787 64.1884968,22.418337 63.8456469,22.4943918 C63.5021934,22.5680321 63.1599472,22.648312 62.9058278,22.7159162 C62.6505012,22.781106 62.4802835,22.8239622 62.4802835,22.8239622" id="Fill-110" fill="#EC3A3B"></path>
                        <path d="M58.4660428,23.9904968 L58.7998385,25.0093887 C58.7998385,25.0093887 59.4577722,24.8023508 60.1157059,24.5965202 C60.7742433,24.3894823 61.4406275,24.2108141 61.4406275,24.2114177 L61.1521024,23.1780392 C61.1514988,23.1780392 60.473646,23.3603291 59.8042437,23.570385 C59.1348414,23.7792337 58.4660428,23.9904968 58.4660428,23.9904968" id="Fill-112" fill="#EC3A3B"></path>
                        <path d="M54.5396875,25.4046318 L54.9296188,26.403001 C54.9296188,26.403001 55.5706515,26.1446563 56.2207383,25.9116633 L57.5197047,25.4420556 L57.1665935,24.4298034 L55.8483116,24.9060508 C55.1885671,25.1414583 54.5396875,25.4040282 54.5396875,25.4046318" id="Fill-114" fill="#EC3A3B"></path>
                        <path d="M50.6922239,27.0085414 L51.1286331,27.9881987 C51.1286331,27.9881987 51.7624225,27.712953 52.397419,27.4371038 C53.0354337,27.1715158 53.6734483,26.9047207 53.6734483,26.9047207 L53.2678231,25.9123876 C53.2678231,25.9123876 52.621358,26.1815972 51.9754964,26.4508068 C51.3338601,26.7296741 50.6922239,27.0085414 50.6922239,27.0085414" id="Fill-116" fill="#EC3A3B"></path>
                        <path d="M46.923833,28.7816426 L47.3982696,29.7437952 C47.3982696,29.7437952 48.0205904,29.4413872 48.6435148,29.1395827 C49.2670428,28.8389855 49.8953997,28.5498568 49.8953997,28.5498568 L49.4463147,27.5762356 C49.4463147,27.5762356 48.8107145,27.8683823 48.1811504,28.171394 C47.5527935,28.4762165 46.923833,28.7816426 46.923833,28.7816426" id="Fill-118" fill="#EC3A3B"></path>
                        <path d="M43.2234689,30.6850026 L43.7292932,31.6302542 C43.7292932,31.6302542 44.3419562,31.3061162 44.9534121,30.9819782 C45.5696968,30.6650835 46.1859815,30.3487925 46.1859815,30.3487925 L45.7000763,29.3920723 C45.7000763,29.3920723 45.0789627,29.7113814 44.4572455,30.0306906 C43.8403572,30.3584502 43.2234689,30.6850026 43.2234689,30.6850026" id="Fill-120" fill="#EC3A3B"></path>
                        <polygon id="Fill-122" fill="#EC3A3B" points="39.5853369 32.7009961 40.1183235 33.6323646 42.5369845 32.2778662 42.0215025 31.3368399"></polygon>
                        <polygon id="Fill-124" fill="#EC3A3B" points="36.0061171 34.8124201 36.5614373 35.7305092 38.9444853 34.3114247 38.4036517 33.3854886"></polygon>
                        <polygon id="Fill-126" fill="#EC3A3B" points="32.4743409 37.0023132 33.0489766 37.9083302 35.4018442 36.4367317 34.8398843 35.524075"></polygon>
                        <polygon id="Fill-128" fill="#EC3A3B" points="28.9870507 39.2569736 29.5773803 40.1527292 31.9042926 38.6394817 31.3248281 37.7370864"></polygon>
                        <polygon id="Fill-130" fill="#EC3A3B" points="25.5381501 41.5665021 26.1411554 42.4538072 28.444527 40.9025322 27.8505759 40.0103983"></polygon>
                        <polygon id="Fill-132" fill="#EC3A3B" points="22.1186452 43.917257 22.7313083 44.7979224 25.0171752 43.2200887 24.4111519 42.335198"></polygon>
                        <polygon id="Fill-134" fill="#EC3A3B" points="18.7239487 46.2998825 19.3426478 47.175719 21.6164426 45.5761554 21.0013651 44.6973008"></polygon>
                        <polygon id="Fill-136" fill="#EC3A3B" points="15.3436784 48.7001333 15.9659991 49.5735554 18.231947 47.9619196 17.6114371 47.0872903"></polygon>
                        <polygon id="Fill-138" fill="#EC3A3B" points="11.969927 51.1016518 12.590437 51.9762811 14.8575921 50.3628345 14.2352713 49.490016"></polygon>
                        <path d="M9.7549841,39.5210525 C5.92508551,43.9829296 1.32739637,49.5397533 0.132854323,55.4237331 C-0.438159714,58.235947 0.846923674,60.6636621 3.77201249,61.1688828 C7.12506004,61.7471401 10.7943987,61.3994614 14.1758158,61.2461447 C15.1391757,61.2026849 21.4583574,60.4379124 21.7794774,60.9558088 C22.8025945,62.605472 25.4138067,61.0916208 24.3852571,59.4322999 C22.6921341,56.7015732 16.6892434,58.1019459 14.1758158,58.2281001 C10.9380576,58.3904709 7.36408917,58.7399605 4.15530416,58.1864511 C2.86659912,57.964323 2.9058337,56.9007641 3.1225293,55.8335835 C4.17039438,50.6727273 8.53086521,45.5680067 11.8887416,41.65481 C13.1496807,40.1868331 11.0243737,38.0416071 9.7549841,39.5210525" id="Fill-140" fill="#E91D1F"></path>
                    </g>
                </g>
            </g>
        </g>
    </g>
</svg>