<?xml version="1.0" encoding="UTF-8"?>
<svg width="176px" height="253px" viewBox="0 0 176 253" version="1.1" xmlns="http://www.w3.org/2000/svg" xmlns:xlink="http://www.w3.org/1999/xlink">
    <!-- Generator: Sketch 48.2 (47327) - http://www.bohemiancoding.com/sketch -->
    <title>tribe-stroke</title>
    <desc>Created with Sketch.</desc>
    <defs>
        <polygon id="path-1" points="4.918 0.2632 4.918 2.8012 0.2891 2.8012 0.2891 0.2632 4.918 0.2632"></polygon>
    </defs>
    <g id="Symbols" stroke="none" stroke-width="1" fill="none" fill-rule="evenodd">
        <g id="tribe-stroke">
            <g id="Page-1" transform="translate(76.500000, 126.500000) rotate(-11.000000) translate(-76.500000, -126.500000) translate(-12.000000, 15.000000)">
                <g id="Group-3" transform="translate(172.000000, 0.000000)">
                    <mask id="mask-2" fill="white">
                        <use xlink:href="#path-1"></use>
                    </mask>
                    <g id="Clip-2"></g>
                    <path d="M0.2891,1.0752 L0.7121,2.8012 C0.7121,2.8012 0.9721,2.7332 1.3601,2.6322 C1.7451,2.5112 2.2751,2.4392 2.8041,2.3582 C3.8611,2.1942 4.9181,2.0302 4.9181,2.0302 L4.7361,0.2632 C4.7361,0.2632 3.6181,0.4352 2.4991,0.6082 C1.9401,0.6942 1.3791,0.7712 0.9731,0.8982 C0.5621,1.0042 0.2891,1.0752 0.2891,1.0752" id="Fill-1" fill="#EC3A3B" mask="url(#mask-2)"></path>
                </g>
                <path d="M166,2.51470588 L166.622542,4 C166.622542,4 166.828928,3.89522059 167.137661,3.73805147 C167.44132,3.56617647 167.865934,3.39246324 168.293931,3.23069853 C169.147388,2.89338235 170,2.55698529 170,2.55698529 L169.547473,1 L167.753436,1.70680147 C167.302601,1.87775735 166.856841,2.06158088 166.538803,2.23988971 C166.21569,2.40441176 166,2.51470588 166,2.51470588" id="Fill-4" fill="#EC3A3B"></path>
                <path d="M161,6.43524136 L161.837826,8 C161.837826,8 162.585794,7.32682669 163.400513,6.79293063 C164.200685,6.22632551 165,5.66077552 165,5.66077552 L164.293967,4 L162.626016,5.17963598 C161.776209,5.73885518 161,6.43524136 161,6.43524136" id="Fill-6" fill="#EC3A3B"></path>
                <path d="M156,9.69377875 L157.01871,11 C157.01871,11 157.192164,10.81893 157.466872,10.567175 C157.747744,10.3231663 158.121946,9.99975793 158.496148,9.67634955 C158.87035,9.35197289 159.244552,9.02856451 159.525424,8.78552409 C159.801893,8.53570564 160,8.39143065 160,8.39143065 L159.080784,7 C159.080784,7 158.874752,7.15008473 158.588598,7.40668119 C158.298921,7.65746793 157.911512,7.99249576 157.524983,8.3275236 C157.138455,8.66255144 156.751926,8.99661099 156.461369,9.24836601 C156.179617,9.50883563 156,9.69377875 156,9.69377875" id="Fill-8" fill="#EC3A3B"></path>
                <path d="M151,13.8718657 L152.172822,15 C152.172822,15 152.871409,14.2905452 153.569083,13.5829308 C154.252165,12.8559926 155.000911,12.2035887 154.999999,12.2035887 L153.902872,11 C153.902872,11.0009202 153.13315,11.673568 152.43274,12.4179894 C151.716826,13.1449275 151,13.8718657 151,13.8718657" id="Fill-10" fill="#EC3A3B"></path>
                <path d="M147,19.006443 L148.313987,20 C148.313987,20 148.96765,19.2481671 149.620362,18.4981115 L151,17.0575428 L149.744053,16 L148.333016,17.4734503 L147,19.006443 Z" id="Fill-12" fill="#EC3A3B"></path>
                <path d="M143,24.1109178 L144.440397,25 C144.440397,25 144.584139,24.7981731 144.829988,24.5154415 C145.07088,24.2301 145.392069,23.8481949 145.71425,23.4680296 C146.356629,22.7059591 147,21.9438886 147,21.9438886 L145.605204,21 L144.295663,22.5511092 C143.968525,22.939104 143.640397,23.3270987 143.395539,23.6176599 C143.145725,23.9064811 143,24.1109178 143,24.1109178" id="Fill-14" fill="#EC3A3B"></path>
                <path d="M140,29.1938184 L141.553438,30 C141.553438,30 142.150914,29.2058382 142.74839,28.4116763 C143.354108,27.6209487 144,26.8542606 144,26.8542606 L142.483647,26 C142.482617,26 141.826423,26.780425 141.212465,27.5823138 C140.606747,28.3884954 140,29.1938184 140,29.1938184" id="Fill-16" fill="#EC3A3B"></path>
                <polygon id="Fill-18" fill="#EC3A3B" points="137 34.2633596 138.659006 35 141 31.7783692 139.370925 31"></polygon>
                <path d="M134,40.152022 L135.319202,41 C135.319202,41 135.72818,39.9646411 136.137988,38.9313995 L137,36.8924412 L135.699917,36 L134.82793,38.0611899 C134.413965,39.1071353 134,40.152022 134,40.152022" id="Fill-20" fill="#EC3A3B"></path>
                <path d="M131,46.2189149 L132.391442,47 C132.391442,47 132.79035,45.9539793 133.190121,44.9079586 C133.389144,44.3844205 133.588168,43.8608824 133.738082,43.4692844 C133.89575,43.0808529 134,42.8222504 134,42.8222504 L132.624928,42 C132.624928,42 132.518955,42.2607135 132.359563,42.6523116 C132.208788,43.0491872 132.00718,43.5769474 131.805572,44.1057631 C131.403217,45.162339 131,46.2189149 131,46.2189149" id="Fill-22" fill="#EC3A3B"></path>
                <path d="M129,52.276829 L130.455595,53 C130.455595,53 130.831261,51.935273 131.222913,50.8789795 L132,48.7621758 L130.557726,48 C130.557726,48 130.166075,49.0689437 129.774423,50.1368332 C129.37833,51.2015602 129,52.276829 129,52.276829" id="Fill-24" fill="#EC3A3B"></path>
                <path d="M126,57.3296796 L127.52295,58 C127.52295,58 127.881885,56.921796 128.241738,55.8435919 C128.620869,54.7738196 129,53.7051012 129,53.7051012 L127.488984,53 C127.488984,53 127.107099,54.078204 126.724296,55.1553541 L126,57.3296796 Z" id="Fill-26" fill="#EC3A3B"></path>
                <path d="M124,63.378954 L125.590579,64 L126.284856,61.8226487 C126.624407,60.7302826 127,59.6537326 127,59.6537326 L125.420803,59 C125.420803,59 125.041416,60.0849852 124.699968,61.1857866 L124,63.378954 Z" id="Fill-28" fill="#EC3A3B"></path>
                <polygon id="Fill-30" fill="#EC3A3B" points="122 69.4255544 123.652981 70 125 65.6061246 123.356794 65"></polygon>
                <path d="M120,75.4677249 L121.713711,76 C121.714717,76 122.018438,74.8846561 122.350318,73.7777778 C122.675159,72.6698413 123,71.5619048 123,71.5619048 L121.29534,71 L120.64063,73.2328042 C120.306738,74.3449735 120,75.4677249 120,75.4677249" id="Fill-32" fill="#EC3A3B"></path>
                <path d="M119,80.607211 L120.781315,81 C120.781315,81 121.076125,80.1007423 121.371972,79.2031813 C121.686505,78.3090138 122,77.4148462 122,77.4148462 L120.22699,77 L119.59481,78.7993637 C119.297924,79.7045599 119,80.607211 119,80.607211" id="Fill-34" fill="#EC3A3B"></path>
                <path d="M117,86.6400766 L118.850608,87 C118.850608,87 119.131523,86.0938098 119.412437,85.1884705 C119.68263,84.2805786 120,83.3820464 120,83.3820464 L118.156898,83 C118.156898,83 117.837384,83.9036375 117.565046,84.8174856 C117.283059,85.7287811 117,86.6400766 117,86.6400766" id="Fill-36" fill="#EC3A3B"></path>
                <polygon id="Fill-38" fill="#EC3A3B" points="116 92.672285 117.922083 93 119 89.349904 117.084564 89"></polygon>
                <polygon id="Fill-40" fill="#EC3A3B" points="114 98.7025927 115.985948 99 117 95.3188344 115.020889 95"></polygon>
                <path d="M113,105.734022 L114.374705,106 C114.374705,106 114.516104,105.068646 114.681068,104.141597 C114.840534,103.213686 115,102.287497 115,102.287497 L113.629222,102 C113.629222,102 113.468971,102.933075 113.30872,103.865289 C113.142184,104.797504 113,105.734022 113,105.734022" id="Fill-42" fill="#EC3A3B"></path>
                <path d="M112,111.765723 L113.43055,112 C113.43055,112 113.565784,111.062892 113.700204,110.125783 C113.850102,109.190404 114,108.255889 114,108.255889 L112.572709,108 L112.271283,109.880268 C112.136049,110.822563 112,111.765723 112,111.765723" id="Fill-44" fill="#EC3A3B"></path>
                <path d="M111,117.799218 L112.492588,118 C112.492588,118 112.61457,117.055193 112.736552,116.110387 C112.851758,115.164711 113,114.223381 113,114.223381 L111.510801,114 C111.510801,114 111.360864,114.946545 111.245659,115.897436 L111,117.799218 Z" id="Fill-46" fill="#EC3A3B"></path>
                <polygon id="Fill-48" fill="#EC3A3B" points="111 123.833042 112.560265 124 113 120.191434 111.442384 120"></polygon>
                <polygon id="Fill-50" fill="#EC3A3B" points="110 129.868809 111.623281 130 112 126.156725 110.379468 126"></polygon>
                <path d="M109,136.906853 L110.70988,137 C110.70988,137 110.752289,136.028609 110.841928,135.05988 L111,133.118873 L109.292048,133 C109.292048,133 109.213012,133.975826 109.133012,134.952539 C109.043373,135.927478 109,136.906853 109,136.906853" id="Fill-52" fill="#EC3A3B"></path>
                <path d="M109,142.946321 L110.811321,143 C110.811321,143 110.849057,142.020353 110.887812,141.039812 C110.943906,140.06106 111,139.081414 111,139.081414 L109.190719,139 C109.190719,139 109.133605,139.985909 109.077511,140.971818 L109,142.946321 Z" id="Fill-54" fill="#EC3A3B"></path>
                <polygon id="Fill-56" fill="#EC3A3B" points="109 148.990059 110.932572 149 111 145.040669 109.068515 145"></polygon>
                <path d="M109.062192,155 L110.999976,154.961121 C111.001067,154.961121 110.96397,153.971971 110.960697,152.981917 C110.949786,151.990958 110.937784,151 110.937784,151 L109,151.007233 C109,151.007233 109.010911,152.004521 109.022913,153.003617 C109.026186,154.001808 109.062192,155 109.062192,155" id="Fill-58" fill="#EC3A3B"></path>
                <path d="M109.207175,162 L111,161.907974 L110.870642,159.955774 C110.832239,158.97744 110.794846,158 110.794846,158 L109,158.056288 L109.076806,160.028144 L109.207175,162 Z" id="Fill-60" fill="#EC3A3B"></path>
                <polygon id="Fill-62" fill="#EC3A3B" points="109.342857 168 111 167.849923 110.659953 164 109 164.109468"></polygon>
                <path d="M110.471559,174 L112,173.786213 C112,173.786213 111.966131,173.549738 111.914894,173.196335 C111.859314,172.842932 111.797655,172.370855 111.748155,171.895288 C111.641337,170.947644 111.533652,170 111.533652,170 L110,170.168412 C110,170.168412 110.108554,171.1274 110.217108,172.086387 C110.266609,172.566318 110.328267,173.044503 110.384716,173.402269 C110.436822,173.76178 110.471559,174 110.471559,174" id="Fill-64" fill="#EC3A3B"></path>
                <path d="M111.602323,180 L113,179.713731 C113,179.713731 112.846215,178.785945 112.69163,177.859884 C112.526632,176.934684 112.406488,176 112.406488,176 L111,176.236258 C111.000801,176.236258 111.121746,177.180427 111.289147,178.119422 C111.445334,179.060142 111.602323,180 111.602323,180" id="Fill-66" fill="#EC3A3B"></path>
                <path d="M113.102131,186 L115,185.627054 C115,185.627054 114.925055,185.40175 114.812638,185.063793 C114.698016,184.726691 114.54482,184.276083 114.42579,183.819501 L113.916605,182 L112,182.3115 L112.518001,184.161724 C112.638134,184.625133 112.794636,185.083422 112.911462,185.426499 C113.026084,185.769575 113.102131,186 113.102131,186" id="Fill-68" fill="#EC3A3B"></path>
                <path d="M114.300403,193 L116,192.405668 C116,192.405668 115.909274,192.134941 115.792339,191.720389 C115.672379,191.307953 115.513105,190.75698 115.352823,190.207064 C115.19254,189.656091 115.032258,189.106176 114.912298,188.693739 C114.78629,188.28236 114.725806,188 114.725806,188 L113,188.502327 C113,188.502327 113.061492,188.788917 113.189516,189.208756 C113.3125,189.629653 113.475806,190.192259 113.639113,190.754865 L114.08871,192.299915 C114.208669,192.72187 114.300403,193 114.300403,193" id="Fill-70" fill="#EC3A3B"></path>
                <path d="M116.510989,199 L118,198.246157 C118,198.246157 117.6163,197.192251 117.232601,196.139398 C117.031136,195.617183 116.858059,195.080227 116.738095,194.673826 C116.611722,194.26953 116.528388,194 116.528388,194 L115,194.64224 L115.214286,195.331859 C115.337912,195.746684 115.515568,196.297326 115.721612,196.834281 C116.1163,197.91872 116.510989,199 116.510989,199" id="Fill-72" fill="#EC3A3B"></path>
                <path d="M119.740445,205 L121,204.038339 C121,204.038339 120.557053,203.044906 120.11328,202.05359 C119.702502,201.036857 119.318119,200 119.318119,200 L118,200.82186 C118,200.82186 118.395931,201.88943 118.820731,202.942173 C119.280176,203.969498 119.740445,205 119.740445,205" id="Fill-74" fill="#EC3A3B"></path>
                <path d="M123.651808,209 L125,208.006092 C125,208.006092 124.335315,207.276762 123.67162,206.547433 C123.053492,205.78416 122.467064,205 122.467064,205 L121.000001,205.853786 C120.999011,205.853786 121.610204,206.671018 122.257059,207.467363 C122.954434,208.233246 123.651808,209 123.651808,209" id="Fill-76" fill="#EC3A3B"></path>
                <path d="M128.012212,214 L129,212.694923 L127.536409,211.399162 C127.15649,211.091756 126.83175,210.720075 126.581185,210.448999 C126.329715,210.179786 126.163275,210 126.163275,210 L125,211.14299 C125,211.14299 125.177295,211.333023 125.442334,211.61714 C125.708277,211.903121 126.051108,212.294364 126.454545,212.623195 C127.233379,213.311598 128.012212,214 128.012212,214" id="Fill-78" fill="#EC3A3B"></path>
                <path d="M133.405612,217 L134,215.654775 C134,215.654775 133.790816,215.575741 133.47534,215.455543 C133.176871,215.301592 132.778912,215.095774 132.380952,214.889956 C131.986395,214.678375 131.578231,214.489846 131.293367,214.311196 C131.014456,214.125137 130.828231,214 130.828231,214 L130,215.223381 C130,215.223381 130.19898,215.356751 130.498299,215.555982 C130.802721,215.746158 131.240646,215.951976 131.664966,216.178375 C132.092687,216.399012 132.520408,216.618825 132.841837,216.78348 C133.179422,216.913557 133.405612,217 133.405612,217" id="Fill-80" fill="#EC3A3B"></path>
                <path d="M139.787769,219 L140,217.025814 C140,217.025814 139.775836,216.983165 139.439165,216.920314 C139.101641,216.864198 138.652461,216.785634 138.220328,216.606061 C137.344982,216.30303 136.470488,216 136.470488,216 L136,217.896745 L137.879395,218.549944 C138.345621,218.739618 138.826337,218.826038 139.186874,218.886644 C139.547411,218.955107 139.787769,219 139.787769,219" id="Fill-82" fill="#EC3A3B"></path>
                <path d="M146,218.844782 L145.868229,217 C145.868229,217 145.632103,217.021875 145.278355,217.053125 C144.923723,217.076041 144.45147,217.151041 143.979217,217.149999 C143.037365,217.117708 142.094627,217.084375 142.094627,217.084375 L142,218.93124 C142,218.93124 143.002874,218.965615 144.006633,218.99999 C144.507185,219.001031 145.003316,218.923948 145.377404,218.901032 C145.750608,218.866657 146,218.844782 146,218.844782" id="Fill-84" fill="#EC3A3B"></path>
                <path d="M152,217.867133 L151.535082,216 C151.535082,216 150.664107,216.327935 149.793986,216.658079 C148.896566,216.859036 148,217.062201 148,217.062201 L148.229473,219 C148.229473,219 149.182342,218.784689 150.13521,218.569378 C151.067605,218.217151 152,217.867133 152,217.867133" id="Fill-86" fill="#EC3A3B"></path>
                <path d="M159,215.247906 L157.978449,214 C157.978449,214 157.004437,214.439698 156.031481,214.880235 C155.557152,215.120603 155.032115,215.279732 154.644412,215.409548 C154.257765,215.541039 154,215.627303 154,215.627303 L154.726812,217 C154.726812,217 155.003592,216.906198 155.418762,216.765494 C155.833932,216.625628 156.397,216.451424 156.908303,216.19598 C157.954152,215.721943 159,215.247906 159,215.247906" id="Fill-88" fill="#EC3A3B"></path>
                <path d="M163,211.122725 L161.817627,210 L161.418079,210.464769 C161.182147,210.74755 160.806102,211.059263 160.458079,211.401773 C160.103729,211.736818 159.749379,212.073728 159.483616,212.324778 C159.19435,212.544097 159,212.691554 159,212.691554 L159.986215,214 C159.986215,214 160.194124,213.842277 160.504181,213.605226 C160.788927,213.337378 161.168588,212.978068 161.548249,212.619692 C161.919774,212.254783 162.322034,211.917872 162.574237,211.616426 C162.830056,211.319645 163,211.122725 163,211.122725" id="Fill-90" fill="#EC3A3B"></path>
                <path d="M167,205.773138 L165.435714,205 C165.435714,205 165.294898,205.197159 165.084694,205.494189 C164.860204,205.78347 164.622449,206.203616 164.282653,206.565217 C163.640816,207.308222 163,208.052088 163,208.052088 L164.423469,209 L165.783673,207.424451 C166.141837,207.039604 166.393878,206.599656 166.629592,206.294016 C166.852041,205.981489 167,205.773138 167,205.773138" id="Fill-92" fill="#EC3A3B"></path>
                <path d="M170,199.655202 L168.528285,199 C168.528285,199 168.17472,200.05402 167.820271,201.109095 C167.648792,201.638742 167.411019,202.131462 167.262522,202.51762 C167.105186,202.898502 167,203.152775 167,203.152775 L168.401002,204 C168.401002,204 168.511491,203.734121 168.675899,203.334248 C168.832351,202.930154 169.080731,202.408947 169.261049,201.857143 C169.630524,200.7567 170,199.655202 170,199.655202" id="Fill-94" fill="#EC3A3B"></path>
                <path d="M172,194.323129 L170.184733,194 C170.184733,194 169.91077,194.891156 169.635762,195.782313 C169.510282,196.230442 169.35657,196.671769 169.215406,196.996599 C169.085744,197.32398 169,197.541667 169,197.541667 L170.770303,198 C170.770303,198 170.86023,197.772959 170.994075,197.431973 C171.140467,197.093537 171.300453,196.635204 171.432206,196.171769 L172,194.323129 Z" id="Fill-96" fill="#EC3A3B"></path>
                <path d="M172,187.146248 L170.502751,187.000002 C170.502751,186.999132 170.485823,187.23504 170.438426,187.584986 C170.39526,187.934931 170.337706,188.402395 170.280152,188.86986 C170.186204,189.809141 170,190.731012 170,190.731012 L171.481168,191 C171.481168,191 171.673297,190.04505 171.770631,189.077041 C171.829877,188.594778 171.889124,188.111645 171.933982,187.749512 C171.982226,187.38825 172,187.146248 172,187.146248" id="Fill-98" fill="#EC3A3B"></path>
                <path d="M172.990981,181 L171.112079,181.021515 C171.112079,181.021515 171.130053,181.264455 171.116308,181.629314 C171.107849,181.993277 171.098333,182.478261 171.088817,182.965038 C171.074014,183.450022 171.079301,183.9368 171.050753,184.301658 C171.02009,184.664724 171,184.906768 171,184.906768 L172.874673,185 C172.874673,185 172.89582,184.750784 172.926483,184.376065 C172.956089,184.002241 172.950802,183.501121 172.966662,183 C172.976179,182.500672 172.986752,182.000448 172.994153,181.624832 C173.008956,181.249216 172.990981,181 172.990981,181" id="Fill-100" fill="#EC3A3B"></path>
                <path d="M172.660395,175 L171,175.183624 C171.000941,175.183624 171.047977,175.420216 171.073377,175.778636 C171.106303,176.13529 171.149577,176.612889 171.19285,177.090488 C171.235183,177.567204 171.277516,178.04392 171.308561,178.402339 C171.321731,178.761642 171.330198,179 171.330198,179 L173,178.924961 C173,178.924961 172.991533,178.679541 172.977422,178.310527 C172.945437,177.942397 172.902164,177.450673 172.85889,176.961598 C172.814675,176.469874 172.76952,175.979033 172.735654,175.610903 C172.708373,175.241889 172.660395,175 172.660395,175" id="Fill-102" fill="#EC3A3B"></path>
                <path d="M171.352597,169 L170,169.338633 C170,169.338633 170.056228,169.562097 170.119485,169.905028 C170.179617,170.248818 170.258493,170.706059 170.337368,171.16416 C170.417025,171.62226 170.4959,172.078642 170.555252,172.422432 C170.598985,172.768801 170.62788,173 170.62788,173 L172,172.768801 C172,172.768801 171.970324,172.531586 171.925029,172.175763 C171.864116,171.821659 171.782116,171.350666 171.700898,170.880533 C171.618899,170.408681 171.537681,169.936829 171.475986,169.584443 C171.411168,169.232058 171.352597,169 171.352597,169" id="Fill-104" fill="#EC3A3B"></path>
                <path d="M169.676669,163 L168,163.626322 C168,163.626322 168.093093,163.895049 168.234233,164.298138 C168.354353,164.706517 168.513511,165.254549 168.674672,165.800466 C168.832829,166.348498 168.989986,166.897588 169.109104,167.307025 C169.228223,167.71752 169.281276,168 169.281276,168 L170.999987,167.516504 C171.000988,167.516504 170.944932,167.225561 170.82281,166.80237 C170.699688,166.378121 170.536525,165.812103 170.374364,165.247143 C170.208199,164.682184 170.053044,164.11405 169.91891,163.694033 C169.773766,163.278248 169.676669,163 169.676669,163" id="Fill-106" fill="#EC3A3B"></path>
                <path d="M167.371528,157 L166,157.85992 C166,157.85992 166.108507,158.113459 166.269965,158.491654 C166.442708,158.864568 166.633681,159.385379 166.818576,159.90936 C167.007813,160.431228 167.196181,160.953095 167.337674,161.345024 C167.480903,161.73484 167.568576,162 167.568576,162 L169,161.301711 C169,161.301711 168.909722,161.028101 168.761285,160.622438 C168.614583,160.215719 168.418403,159.67378 168.222222,159.13184 C168.030382,158.587788 167.831597,158.047961 167.652778,157.658145 C167.483507,157.264103 167.371528,157 167.371528,157" id="Fill-108" fill="#EC3A3B"></path>
                <path d="M163.451382,151 L162,151.921223 C162,151.921223 162.655067,152.662505 163.27738,153.422729 L164.428864,155 L166,154.232028 L164.794268,152.580715 C164.142272,151.780026 163.451382,151 163.451382,151" id="Fill-110" fill="#EC3A3B"></path>
                <path d="M159.05447,147 L158,148.24119 C158,148.24119 158.047805,148.278719 158.132383,148.345538 C158.21972,148.40595 158.331878,148.508467 158.461503,148.638444 C158.72627,148.891991 159.079292,149.230664 159.431395,149.568421 C159.608826,149.735927 159.784417,149.906178 159.950816,150.063616 C160.101586,150.236613 160.242243,150.398627 160.362675,150.536842 C160.603539,150.814188 160.763503,151 160.763503,151 L162,149.936384 C162,149.936384 161.829924,149.739588 161.574351,149.446682 C161.446564,149.300229 161.296713,149.128146 161.13675,148.945995 C160.960239,148.775744 160.772696,148.595423 160.584234,148.415103 C160.208228,148.055378 159.831303,147.694737 159.549069,147.424714 C159.410251,147.286499 159.289818,147.176659 159.196047,147.110755 C159.105953,147.040275 159.05447,147 159.05447,147" id="Fill-112" fill="#EC3A3B"></path>
                <path d="M153.704488,143 L153,144.681392 C153,144.681392 153.205758,144.819545 153.513971,145.027309 C153.820491,145.243641 154.247248,145.488889 154.613887,145.800535 C154.994073,146.099331 155.375106,146.397055 155.660457,146.620884 C155.946655,146.84257 156.132938,147 156.132938,147 L157,145.44498 C157,145.44498 156.799323,145.274699 156.490262,145.032664 C156.181202,144.790629 155.76884,144.468273 155.357324,144.145917 C154.945809,143.803213 154.521592,143.560107 154.218459,143.344846 C153.910246,143.138153 153.704488,143 153.704488,143" id="Fill-114" fill="#EC3A3B"></path>
                <path d="M148.801807,140 L148,141.377288 C148,141.377288 149.042455,141.74714 150.083859,142.117849 C151.105296,142.558924 152.126734,143 152.126734,143 L153,141.652746 C153,141.652746 151.978562,141.21167 150.957125,140.769737 C149.878941,140.385297 148.801807,140 148.801807,140" id="Fill-116" fill="#EC3A3B"></path>
                <path d="M142.613168,138 L142,139.567736 C142,139.567736 143.080143,139.901277 144.160286,140.234818 C144.707194,140.387107 145.227808,140.590782 145.615902,140.745874 C146.008204,140.898163 146.267985,141 146.267985,141 L147,139.471504 C147,139.471504 146.729701,139.366864 146.324779,139.210838 C145.92196,139.05014 145.383467,138.838991 144.824989,138.682031 C143.719605,138.341015 142.613168,138 142.613168,138" id="Fill-118" fill="#EC3A3B"></path>
                <path d="M136.365947,136 L136,137.793965 L137.779754,138.368366 C138.224481,138.514048 138.670055,138.659729 139.002965,138.766909 C139.329945,138.907388 139.546802,139 139.546802,139 L140,137.236212 C140,137.236212 139.776366,137.141519 139.442609,136.998959 C139.101228,136.887617 138.645489,136.738814 138.18975,136.59001 C137.278272,136.295525 136.365947,136 136.365947,136" id="Fill-120" fill="#EC3A3B"></path>
                <polygon id="Fill-122" fill="#EC3A3B" points="130.238729 135 130 136.382736 133.672821 137 134 135.633031"></polygon>
                <polygon id="Fill-124" fill="#EC3A3B" points="124.108132 134 124 135.58871 127.801319 136 128 134.420251"></polygon>
                <path d="M118,134.034991 L118.024286,135.924505 C118.024286,135.924505 119.002024,135.847946 119.979762,135.920251 L121.934338,136 L122,134.11155 C122,134.11155 120.999775,134.072207 119.99955,134.031801 C118.999325,133.958433 118,134.034991 118,134.034991" id="Fill-126" fill="#EC3A3B"></path>
                <path d="M111,134.295904 L111.149889,136 C111.149889,136 112.110421,135.892048 113.070953,135.78506 L115,135.711807 L114.933481,134 C114.933481,134 113.947228,134.03759 112.960976,134.077108 C111.980931,134.186988 111,134.295904 111,134.295904" id="Fill-128" fill="#EC3A3B"></path>
                <path d="M105,135.547491 L105.262153,137 C105.262153,137 106.194444,136.850684 107.127604,136.702198 C108.056424,136.529656 109,136.463293 109,136.463293 L108.814236,135 C108.814236,135 107.849826,135.068851 106.90191,135.243882 C105.951389,135.395686 105,135.547491 105,135.547491" id="Fill-130" fill="#EC3A3B"></path>
                <polygon id="Fill-132" fill="#EC3A3B" points="99 137.090708 99.3628584 139 103 137.929204 102.705605 136"></polygon>
                <polygon id="Fill-134" fill="#EC3A3B" points="93 138.262726 93.4530059 140 97 138.758797 96.6096528 137"></polygon>
                <path d="M87,140.416985 L87.6677902,142 C87.6677902,142 87.9353276,141.903626 88.3355804,141.757634 C88.7421529,141.629771 89.2846008,141.459924 89.828102,141.288168 L92,140.605916 L91.4006741,139 L89.1940173,139.692748 C88.643143,139.867366 88.0912155,140.040076 87.6772699,140.170802 C87.2706973,140.317748 87,140.416985 87,140.416985" id="Fill-136" fill="#EC3A3B"></path>
                <path d="M81,142.547029 L81.7629083,144 C81.7629083,144 82.024236,143.89788 82.4162276,143.745596 C82.8071654,143.590624 83.3287671,143.384592 83.8672287,143.209018 C84.9336143,142.84264 86,142.477157 86,142.477157 L85.3003161,141 C85.3003161,141 84.2170706,141.372649 83.1348788,141.744401 C82.5890411,141.922663 82.0600632,142.131383 81.662803,142.288146 C81.2644889,142.443117 81,142.547029 81,142.547029" id="Fill-138" fill="#EC3A3B"></path>
                <path d="M75,145.651915 L75.8497146,147 C75.8497146,147 76.8769816,146.57617 77.9053054,146.151489 C78.9526527,145.761702 80,145.371064 80,145.371064 L79.205242,144 C79.205242,144 78.1441556,144.395745 77.0820123,144.79234 C76.0410061,145.221277 75,145.651915 75,145.651915" id="Fill-140" fill="#EC3A3B"></path>
                <path d="M70,148.320652 L70.7451147,150 C70.7451147,150 71.5539507,149.415217 72.3627867,148.830435 C73.1631266,148.226087 73.9991504,147.709783 74,147.709783 L73.2948173,146 C73.2948173,146 72.4477485,146.526087 71.6372133,147.13587 C70.8190314,147.728261 70,148.320652 70,148.320652" id="Fill-142" fill="#EC3A3B"></path>
                <path d="M65,151.419921 L65.8068449,153 C65.8068449,153 66.6034225,152.397117 67.3991444,151.794233 C67.797861,151.493316 68.1957219,151.192398 68.4943316,150.966972 C68.7929412,150.740498 69,150.607339 69,150.607339 L68.2299465,149 C68.2299465,149 68.0203209,149.135256 67.7182888,149.363827 C67.4162567,149.593447 67.0141176,149.89751 66.611123,150.201573 C65.8051337,150.811796 65,151.419921 65,151.419921" id="Fill-144" fill="#EC3A3B"></path>
                <polygon id="Fill-146" fill="#EC3A3B" points="59 155.505349 59.863607 157 63 154.52216 62.1691446 153"></polygon>
                <polygon id="Fill-148" fill="#EC3A3B" points="54 158.575561 54.9171367 160 58 157.449377 57.1140998 156"></polygon>
                <polygon id="Fill-150" fill="#EC3A3B" points="49 162.641251 49.9682921 164 53 161.384164 52.0614476 160"></polygon>
                <path d="M44,166.704981 L45.0207873,168 C45.0207873,168 45.7478992,167.306513 46.5033171,166.649425 C47.2516586,165.984674 48,165.319923 48,165.319923 L47.0066342,164 L45.4957983,165.342912 C44.7341884,166.005747 44,166.704981 44,166.704981" id="Fill-152" fill="#EC3A3B"></path>
                <path d="M40,170.765176 L41.0716204,172 C41.0716204,172 41.7806625,171.289412 42.522829,170.614588 C43.2614145,169.937882 44,169.260235 44,169.260235 L42.954342,168 C42.954342,168 42.2094897,168.684235 41.4637422,169.366588 C40.7153089,170.046118 40,170.764235 40,170.765176" id="Fill-154" fill="#EC3A3B"></path>
                <path d="M35,174.819171 L36.1221391,176 C36.1221391,176 36.8318604,175.292429 37.5424881,174.583005 L39,173.204909 L37.902334,172 C37.902334,172 37.1681396,172.694605 36.4330387,173.390137 L35,174.819171 Z" id="Fill-156" fill="#EC3A3B"></path>
                <path d="M31,178.871491 L32.1725247,180 C32.1725247,180 32.8745693,179.282356 33.574776,178.564711 C34.2676315,177.83885 35,177.152248 35,177.152248 L33.850448,176 C33.850448,176 33.1116471,176.692079 32.4141971,177.424332 C31.707558,178.147455 31,178.871491 31,178.871491" id="Fill-158" fill="#EC3A3B"></path>
                <path d="M26,183.922037 L27.2242424,185 C27.2242424,185 27.9160839,184.274448 28.6079254,183.547093 C29.2969697,182.817936 30,182.102298 30,182.101397 L28.7981352,181 C28.7981352,181 28.0895105,181.721947 27.3948718,182.457413 C26.6974359,183.190176 26,183.922037 26,183.922037" id="Fill-160" fill="#EC3A3B"></path>
                <polygon id="Fill-162" fill="#EC3A3B" points="22 188.96921 23.276294 190 26 187.054886 24.7463957 186"></polygon>
                <path d="M18,193.015262 L19.3279003,194 C19.3279003,194 19.9942474,193.251493 20.6605944,192.502101 C21.3307766,191.755364 22,191.009511 22,191.009511 L20.6951103,190 C20.6951103,190 20.0191755,190.751161 19.3441994,191.504977 C18.6720997,192.259677 18,193.015262 18,193.015262" id="Fill-164" fill="#EC3A3B"></path>
                <path d="M14,198.064799 L15.3877352,199 C15.3877352,198.999124 16.0141705,198.222417 16.6777425,197.469352 L18,195.961471 L16.6347422,195 C16.6347422,195 15.9682385,195.760946 15.3017347,196.521016 C14.6313218,197.28021 14,198.064799 14,198.064799" id="Fill-166" fill="#EC3A3B"></path>
                <path d="M11,203.117086 L12.455181,204 C12.455181,204 13.082397,203.223764 13.7106117,202.446661 C14.3318352,201.665221 15,200.91327 15,200.91327 L13.5697878,200 C13.5697878,200 12.8956305,200.75889 12.2694132,201.548135 L11,203.117086 Z" id="Fill-168" fill="#EC3A3B"></path>
                <path d="M48.8963386,208.45709 C35.5501122,208.438161 16.7689801,207.112215 5.59067823,216.342733 C7.0727537,201.382536 6.41709332,186.534018 4.37652728,171.577608 C4.06803672,169.317536 0.65765936,170.282893 0.963319737,172.52025 C3.15482917,188.587768 3.71237634,204.688411 1.55577257,220.791893 C1.28596125,222.80684 3.54445181,223.825197 4.79067823,222.160429 C9.65482917,215.654679 18.5538858,213.806304 26.1387914,212.822965 C33.6755839,211.847197 41.3152065,211.998625 48.8963386,212.00809 C51.1793575,212.011875 51.1784141,208.459929 48.8963386,208.45709" id="Fill-170" fill="#E91D1F"></path>
            </g>
        </g>
    </g>
</svg>