<?xml version="1.0" encoding="UTF-8"?>
<svg width="306px" height="111px" viewBox="0 0 306 111" version="1.1" xmlns="http://www.w3.org/2000/svg" xmlns:xlink="http://www.w3.org/1999/xlink">
    <!-- Generator: Sketch 48.2 (47327) - http://www.bohemiancoding.com/sketch -->
    <title>tribe</title>
    <desc>Created with Sketch.</desc>
    <defs>
        <polygon id="path-1" points="0.5522 0.289 8.1572 0.289 8.1572 4.5136 0.5522 4.5136 0.5522 0.289"></polygon>
        <polygon id="path-3" points="4.55984263e-15 58.41735 4.55984263e-15 0.875100367 65.5194586 0.875100367 65.5194586 58.41735"></polygon>
        <polygon id="path-5" points="0 95.7109 65.52 95.7109 65.52 0.9999 0 0.9999"></polygon>
        <polygon id="path-7" points="0.5522 0.289 8.1572 0.289 8.1572 4.5136 0.5522 4.5136 0.5522 0.289"></polygon>
        <polygon id="path-9" points="4.55984263e-15 58.41735 4.55984263e-15 0.875100367 65.5194586 0.875100367 65.5194586 58.41735"></polygon>
        <polygon id="path-11" points="0 95.7109 65.52 95.7109 65.52 0.9999 0 0.9999"></polygon>
        <polygon id="path-13" points="0.5522 0.289 8.1572 0.289 8.1572 4.5136 0.5522 4.5136 0.5522 0.289"></polygon>
        <polygon id="path-15" points="4.55984263e-15 58.41735 4.55984263e-15 0.875100367 65.5194586 0.875100367 65.5194586 58.41735"></polygon>
        <polygon id="path-17" points="0 95.7109 65.52 95.7109 65.52 0.9999 0 0.9999"></polygon>
        <polygon id="path-19" points="0.5522 0.289 8.1572 0.289 8.1572 4.5136 0.5522 4.5136 0.5522 0.289"></polygon>
        <polygon id="path-21" points="4.55984263e-15 58.41735 4.55984263e-15 0.875100367 65.5194586 0.875100367 65.5194586 58.41735"></polygon>
        <polygon id="path-23" points="0 95.7109 65.52 95.7109 65.52 0.9999 0 0.9999"></polygon>
        <polygon id="path-25" points="0.5522 0.289 8.1572 0.289 8.1572 4.5136 0.5522 4.5136 0.5522 0.289"></polygon>
        <polygon id="path-27" points="4.55984263e-15 58.41735 4.55984263e-15 0.875100367 65.5194586 0.875100367 65.5194586 58.41735"></polygon>
        <polygon id="path-29" points="0 95.7109 65.52 95.7109 65.52 0.9999 0 0.9999"></polygon>
    </defs>
    <g id="Symbols" stroke="none" stroke-width="1" fill="none" fill-rule="evenodd">
        <g id="tribe">
            <g id="Page-1" transform="translate(0.000000, 13.000000)">
                <g id="Group-3" transform="translate(21.000000, 0.710900)">
                    <mask id="mask-2" fill="white">
                        <use xlink:href="#path-1"></use>
                    </mask>
                    <g id="Clip-2"></g>
                    <path d="M8.1572,1.2676 L7.9482,0.2886 C5.2792,0.8596 2.7212,2.0466 0.5522,3.7226 L1.1632,4.5136 C3.2152,2.9286 5.6332,1.8066 8.1572,1.2676" id="Fill-1" fill="#E91D1F" mask="url(#mask-2)"></path>
                </g>
                <path d="M43.7534,33.9023 C45.9564,32.2783 47.8024,30.1473 49.0914,27.7413 L48.2104,27.2683 C46.9904,29.5463 45.2444,31.5603 43.1594,33.0973 L43.7534,33.9023 Z" id="Fill-4" fill="#E91D1F"></path>
                <path d="M15.9922,26.6142 C17.1142,29.1022 18.8122,31.3532 20.9022,33.1242 L21.5482,32.3602 C19.5712,30.6862 17.9652,28.5572 16.9042,26.2042 L15.9922,26.6142 Z" id="Fill-6" fill="#E91D1F"></path>
                <path d="M28.1333,36.8896 C29.6533,37.2876 31.2253,37.4906 32.8083,37.4906 L32.8203,37.4906 C33.9833,37.4906 35.1483,37.3806 36.2813,37.1656 L36.0943,36.1836 C35.0223,36.3866 33.9213,36.4906 32.8203,36.4906 L32.8093,36.4906 C31.3113,36.4906 29.8233,36.2986 28.3873,35.9226 L28.1333,36.8896 Z" id="Fill-8" fill="#E91D1F"></path>
                <path d="M44.4155,4.6923 C42.2845,2.9683 39.7555,1.7233 37.1005,1.0913 L36.8695,2.0643 C39.3795,2.6623 41.7715,3.8383 43.7865,5.4693 L44.4155,4.6923 Z" id="Fill-10" fill="#E91D1F"></path>
                <path d="M17.2466,11.166 L16.3546,10.715 C15.1046,13.182 14.4386,15.843 14.3766,18.624 L15.3766,18.645 C15.4356,16.016 16.0646,13.499 17.2466,11.166" id="Fill-12" fill="#E91D1F"></path>
                <path d="M50.251,19.8349 L51.25,19.8799 C51.263,19.6019 51.269,19.3219 51.269,19.0419 C51.269,16.2579 50.664,13.5819 49.471,11.0899 L48.568,11.5219 C49.697,13.8779 50.269,16.4079 50.269,19.0429 C50.269,19.3089 50.263,19.5719 50.251,19.8349" id="Fill-14" fill="#E91D1F"></path>
                <g id="Group-18" transform="translate(0.000000, 36.710900)">
                    <mask id="mask-4" fill="white">
                        <use xlink:href="#path-3"></use>
                    </mask>
                    <g id="Clip-17"></g>
                    <path d="M64.9951,29.2686 C63.1561,12.9816 48.8281,1.2436 32.8201,0.8826 C16.8191,0.5226 3.1811,13.1706 0.7341,28.6046 C-0.6699,37.4616 0.3711,47.0606 0.3711,55.9986 C0.3711,59.2236 5.3711,59.2236 5.3711,55.9986 L5.3711,33.8026 C5.3711,18.4036 17.4921,6.2276 32.8201,5.8826 C47.9541,5.5416 60.2681,18.7566 60.2681,33.5456 L60.2681,55.9986 C60.2681,59.2236 65.2681,59.2236 65.2681,55.9986 C65.2681,47.1766 65.9861,38.0466 64.9951,29.2686" id="Fill-16" fill="#E91D1F" mask="url(#mask-4)"></path>
                </g>
                <mask id="mask-6" fill="white">
                    <use xlink:href="#path-5"></use>
                </mask>
                <g id="Clip-20"></g>
                <polygon id="Fill-19" fill="#E91D1F" mask="url(#mask-6)" points="46.882 79.7109 47.882 79.7109 47.882 71.7109 46.882 71.7109"></polygon>
                <polygon id="Fill-21" fill="#E91D1F" mask="url(#mask-6)" points="46.882 95.7109 47.882 95.7109 47.882 87.7109 46.882 87.7109"></polygon>
                <polygon id="Fill-22" fill="#E91D1F" mask="url(#mask-6)" points="17.548 95.7109 18.548 95.7109 18.548 87.7109 17.548 87.7109"></polygon>
                <polygon id="Fill-23" fill="#E91D1F" mask="url(#mask-6)" points="17.548 79.7109 18.548 79.7109 18.548 71.7109 17.548 71.7109"></polygon>
            </g>
            <g id="Page-1-Copy-2" transform="translate(120.000000, 15.000000)">
                <g id="Group-3" transform="translate(21.000000, 0.710900)">
                    <mask id="mask-8" fill="white">
                        <use xlink:href="#path-7"></use>
                    </mask>
                    <g id="Clip-2"></g>
                    <path d="M8.1572,1.2676 L7.9482,0.2886 C5.2792,0.8596 2.7212,2.0466 0.5522,3.7226 L1.1632,4.5136 C3.2152,2.9286 5.6332,1.8066 8.1572,1.2676" id="Fill-1" fill="#E91D1F" mask="url(#mask-8)"></path>
                </g>
                <path d="M43.7534,33.9023 C45.9564,32.2783 47.8024,30.1473 49.0914,27.7413 L48.2104,27.2683 C46.9904,29.5463 45.2444,31.5603 43.1594,33.0973 L43.7534,33.9023 Z" id="Fill-4" fill="#E91D1F"></path>
                <path d="M15.9922,26.6142 C17.1142,29.1022 18.8122,31.3532 20.9022,33.1242 L21.5482,32.3602 C19.5712,30.6862 17.9652,28.5572 16.9042,26.2042 L15.9922,26.6142 Z" id="Fill-6" fill="#E91D1F"></path>
                <path d="M28.1333,36.8896 C29.6533,37.2876 31.2253,37.4906 32.8083,37.4906 L32.8203,37.4906 C33.9833,37.4906 35.1483,37.3806 36.2813,37.1656 L36.0943,36.1836 C35.0223,36.3866 33.9213,36.4906 32.8203,36.4906 L32.8093,36.4906 C31.3113,36.4906 29.8233,36.2986 28.3873,35.9226 L28.1333,36.8896 Z" id="Fill-8" fill="#E91D1F"></path>
                <path d="M44.4155,4.6923 C42.2845,2.9683 39.7555,1.7233 37.1005,1.0913 L36.8695,2.0643 C39.3795,2.6623 41.7715,3.8383 43.7865,5.4693 L44.4155,4.6923 Z" id="Fill-10" fill="#E91D1F"></path>
                <path d="M17.2466,11.166 L16.3546,10.715 C15.1046,13.182 14.4386,15.843 14.3766,18.624 L15.3766,18.645 C15.4356,16.016 16.0646,13.499 17.2466,11.166" id="Fill-12" fill="#E91D1F"></path>
                <path d="M50.251,19.8349 L51.25,19.8799 C51.263,19.6019 51.269,19.3219 51.269,19.0419 C51.269,16.2579 50.664,13.5819 49.471,11.0899 L48.568,11.5219 C49.697,13.8779 50.269,16.4079 50.269,19.0429 C50.269,19.3089 50.263,19.5719 50.251,19.8349" id="Fill-14" fill="#E91D1F"></path>
                <g id="Group-18" transform="translate(0.000000, 36.710900)">
                    <mask id="mask-10" fill="white">
                        <use xlink:href="#path-9"></use>
                    </mask>
                    <g id="Clip-17"></g>
                    <path d="M64.9951,29.2686 C63.1561,12.9816 48.8281,1.2436 32.8201,0.8826 C16.8191,0.5226 3.1811,13.1706 0.7341,28.6046 C-0.6699,37.4616 0.3711,47.0606 0.3711,55.9986 C0.3711,59.2236 5.3711,59.2236 5.3711,55.9986 L5.3711,33.8026 C5.3711,18.4036 17.4921,6.2276 32.8201,5.8826 C47.9541,5.5416 60.2681,18.7566 60.2681,33.5456 L60.2681,55.9986 C60.2681,59.2236 65.2681,59.2236 65.2681,55.9986 C65.2681,47.1766 65.9861,38.0466 64.9951,29.2686" id="Fill-16" fill="#E91D1F" mask="url(#mask-10)"></path>
                </g>
                <mask id="mask-12" fill="white">
                    <use xlink:href="#path-11"></use>
                </mask>
                <g id="Clip-20"></g>
                <polygon id="Fill-19" fill="#E91D1F" mask="url(#mask-12)" points="46.882 79.7109 47.882 79.7109 47.882 71.7109 46.882 71.7109"></polygon>
                <polygon id="Fill-21" fill="#E91D1F" mask="url(#mask-12)" points="46.882 95.7109 47.882 95.7109 47.882 87.7109 46.882 87.7109"></polygon>
                <polygon id="Fill-22" fill="#E91D1F" mask="url(#mask-12)" points="17.548 95.7109 18.548 95.7109 18.548 87.7109 17.548 87.7109"></polygon>
                <polygon id="Fill-23" fill="#E91D1F" mask="url(#mask-12)" points="17.548 79.7109 18.548 79.7109 18.548 71.7109 17.548 71.7109"></polygon>
            </g>
            <g id="Page-1-Copy-4" transform="translate(240.000000, 15.000000)">
                <g id="Group-3" transform="translate(21.000000, 0.710900)">
                    <mask id="mask-14" fill="white">
                        <use xlink:href="#path-13"></use>
                    </mask>
                    <g id="Clip-2"></g>
                    <path d="M8.1572,1.2676 L7.9482,0.2886 C5.2792,0.8596 2.7212,2.0466 0.5522,3.7226 L1.1632,4.5136 C3.2152,2.9286 5.6332,1.8066 8.1572,1.2676" id="Fill-1" fill="#E91D1F" mask="url(#mask-14)"></path>
                </g>
                <path d="M43.7534,33.9023 C45.9564,32.2783 47.8024,30.1473 49.0914,27.7413 L48.2104,27.2683 C46.9904,29.5463 45.2444,31.5603 43.1594,33.0973 L43.7534,33.9023 Z" id="Fill-4" fill="#E91D1F"></path>
                <path d="M15.9922,26.6142 C17.1142,29.1022 18.8122,31.3532 20.9022,33.1242 L21.5482,32.3602 C19.5712,30.6862 17.9652,28.5572 16.9042,26.2042 L15.9922,26.6142 Z" id="Fill-6" fill="#E91D1F"></path>
                <path d="M28.1333,36.8896 C29.6533,37.2876 31.2253,37.4906 32.8083,37.4906 L32.8203,37.4906 C33.9833,37.4906 35.1483,37.3806 36.2813,37.1656 L36.0943,36.1836 C35.0223,36.3866 33.9213,36.4906 32.8203,36.4906 L32.8093,36.4906 C31.3113,36.4906 29.8233,36.2986 28.3873,35.9226 L28.1333,36.8896 Z" id="Fill-8" fill="#E91D1F"></path>
                <path d="M44.4155,4.6923 C42.2845,2.9683 39.7555,1.7233 37.1005,1.0913 L36.8695,2.0643 C39.3795,2.6623 41.7715,3.8383 43.7865,5.4693 L44.4155,4.6923 Z" id="Fill-10" fill="#E91D1F"></path>
                <path d="M17.2466,11.166 L16.3546,10.715 C15.1046,13.182 14.4386,15.843 14.3766,18.624 L15.3766,18.645 C15.4356,16.016 16.0646,13.499 17.2466,11.166" id="Fill-12" fill="#E91D1F"></path>
                <path d="M50.251,19.8349 L51.25,19.8799 C51.263,19.6019 51.269,19.3219 51.269,19.0419 C51.269,16.2579 50.664,13.5819 49.471,11.0899 L48.568,11.5219 C49.697,13.8779 50.269,16.4079 50.269,19.0429 C50.269,19.3089 50.263,19.5719 50.251,19.8349" id="Fill-14" fill="#E91D1F"></path>
                <g id="Group-18" transform="translate(0.000000, 36.710900)">
                    <mask id="mask-16" fill="white">
                        <use xlink:href="#path-15"></use>
                    </mask>
                    <g id="Clip-17"></g>
                    <path d="M64.9951,29.2686 C63.1561,12.9816 48.8281,1.2436 32.8201,0.8826 C16.8191,0.5226 3.1811,13.1706 0.7341,28.6046 C-0.6699,37.4616 0.3711,47.0606 0.3711,55.9986 C0.3711,59.2236 5.3711,59.2236 5.3711,55.9986 L5.3711,33.8026 C5.3711,18.4036 17.4921,6.2276 32.8201,5.8826 C47.9541,5.5416 60.2681,18.7566 60.2681,33.5456 L60.2681,55.9986 C60.2681,59.2236 65.2681,59.2236 65.2681,55.9986 C65.2681,47.1766 65.9861,38.0466 64.9951,29.2686" id="Fill-16" fill="#E91D1F" mask="url(#mask-16)"></path>
                </g>
                <mask id="mask-18" fill="white">
                    <use xlink:href="#path-17"></use>
                </mask>
                <g id="Clip-20"></g>
                <polygon id="Fill-19" fill="#E91D1F" mask="url(#mask-18)" points="46.882 79.7109 47.882 79.7109 47.882 71.7109 46.882 71.7109"></polygon>
                <polygon id="Fill-21" fill="#E91D1F" mask="url(#mask-18)" points="46.882 95.7109 47.882 95.7109 47.882 87.7109 46.882 87.7109"></polygon>
                <polygon id="Fill-22" fill="#E91D1F" mask="url(#mask-18)" points="17.548 95.7109 18.548 95.7109 18.548 87.7109 17.548 87.7109"></polygon>
                <polygon id="Fill-23" fill="#E91D1F" mask="url(#mask-18)" points="17.548 79.7109 18.548 79.7109 18.548 71.7109 17.548 71.7109"></polygon>
            </g>
            <g id="Page-1-Copy" transform="translate(60.000000, 0.000000)">
                <g id="Group-3" transform="translate(21.000000, 0.710900)">
                    <mask id="mask-20" fill="white">
                        <use xlink:href="#path-19"></use>
                    </mask>
                    <g id="Clip-2"></g>
                    <path d="M8.1572,1.2676 L7.9482,0.2886 C5.2792,0.8596 2.7212,2.0466 0.5522,3.7226 L1.1632,4.5136 C3.2152,2.9286 5.6332,1.8066 8.1572,1.2676" id="Fill-1" fill="#E91D1F" mask="url(#mask-20)"></path>
                </g>
                <path d="M43.7534,33.9023 C45.9564,32.2783 47.8024,30.1473 49.0914,27.7413 L48.2104,27.2683 C46.9904,29.5463 45.2444,31.5603 43.1594,33.0973 L43.7534,33.9023 Z" id="Fill-4" fill="#E91D1F"></path>
                <path d="M15.9922,26.6142 C17.1142,29.1022 18.8122,31.3532 20.9022,33.1242 L21.5482,32.3602 C19.5712,30.6862 17.9652,28.5572 16.9042,26.2042 L15.9922,26.6142 Z" id="Fill-6" fill="#E91D1F"></path>
                <path d="M28.1333,36.8896 C29.6533,37.2876 31.2253,37.4906 32.8083,37.4906 L32.8203,37.4906 C33.9833,37.4906 35.1483,37.3806 36.2813,37.1656 L36.0943,36.1836 C35.0223,36.3866 33.9213,36.4906 32.8203,36.4906 L32.8093,36.4906 C31.3113,36.4906 29.8233,36.2986 28.3873,35.9226 L28.1333,36.8896 Z" id="Fill-8" fill="#E91D1F"></path>
                <path d="M44.4155,4.6923 C42.2845,2.9683 39.7555,1.7233 37.1005,1.0913 L36.8695,2.0643 C39.3795,2.6623 41.7715,3.8383 43.7865,5.4693 L44.4155,4.6923 Z" id="Fill-10" fill="#E91D1F"></path>
                <path d="M17.2466,11.166 L16.3546,10.715 C15.1046,13.182 14.4386,15.843 14.3766,18.624 L15.3766,18.645 C15.4356,16.016 16.0646,13.499 17.2466,11.166" id="Fill-12" fill="#E91D1F"></path>
                <path d="M50.251,19.8349 L51.25,19.8799 C51.263,19.6019 51.269,19.3219 51.269,19.0419 C51.269,16.2579 50.664,13.5819 49.471,11.0899 L48.568,11.5219 C49.697,13.8779 50.269,16.4079 50.269,19.0429 C50.269,19.3089 50.263,19.5719 50.251,19.8349" id="Fill-14" fill="#E91D1F"></path>
                <g id="Group-18" transform="translate(0.000000, 36.710900)">
                    <mask id="mask-22" fill="white">
                        <use xlink:href="#path-21"></use>
                    </mask>
                    <g id="Clip-17"></g>
                    <path d="M64.9951,29.2686 C63.1561,12.9816 48.8281,1.2436 32.8201,0.8826 C16.8191,0.5226 3.1811,13.1706 0.7341,28.6046 C-0.6699,37.4616 0.3711,47.0606 0.3711,55.9986 C0.3711,59.2236 5.3711,59.2236 5.3711,55.9986 L5.3711,33.8026 C5.3711,18.4036 17.4921,6.2276 32.8201,5.8826 C47.9541,5.5416 60.2681,18.7566 60.2681,33.5456 L60.2681,55.9986 C60.2681,59.2236 65.2681,59.2236 65.2681,55.9986 C65.2681,47.1766 65.9861,38.0466 64.9951,29.2686" id="Fill-16" fill="#E91D1F" mask="url(#mask-22)"></path>
                </g>
                <mask id="mask-24" fill="white">
                    <use xlink:href="#path-23"></use>
                </mask>
                <g id="Clip-20"></g>
                <polygon id="Fill-19" fill="#E91D1F" mask="url(#mask-24)" points="46.882 79.7109 47.882 79.7109 47.882 71.7109 46.882 71.7109"></polygon>
                <polygon id="Fill-21" fill="#E91D1F" mask="url(#mask-24)" points="46.882 95.7109 47.882 95.7109 47.882 87.7109 46.882 87.7109"></polygon>
                <polygon id="Fill-22" fill="#E91D1F" mask="url(#mask-24)" points="17.548 95.7109 18.548 95.7109 18.548 87.7109 17.548 87.7109"></polygon>
                <polygon id="Fill-23" fill="#E91D1F" mask="url(#mask-24)" points="17.548 79.7109 18.548 79.7109 18.548 71.7109 17.548 71.7109"></polygon>
            </g>
            <g id="Page-1-Copy-3" transform="translate(180.000000, 0.000000)">
                <g id="Group-3" transform="translate(21.000000, 0.710900)">
                    <mask id="mask-26" fill="white">
                        <use xlink:href="#path-25"></use>
                    </mask>
                    <g id="Clip-2"></g>
                    <path d="M8.1572,1.2676 L7.9482,0.2886 C5.2792,0.8596 2.7212,2.0466 0.5522,3.7226 L1.1632,4.5136 C3.2152,2.9286 5.6332,1.8066 8.1572,1.2676" id="Fill-1" fill="#E91D1F" mask="url(#mask-26)"></path>
                </g>
                <path d="M43.7534,33.9023 C45.9564,32.2783 47.8024,30.1473 49.0914,27.7413 L48.2104,27.2683 C46.9904,29.5463 45.2444,31.5603 43.1594,33.0973 L43.7534,33.9023 Z" id="Fill-4" fill="#E91D1F"></path>
                <path d="M15.9922,26.6142 C17.1142,29.1022 18.8122,31.3532 20.9022,33.1242 L21.5482,32.3602 C19.5712,30.6862 17.9652,28.5572 16.9042,26.2042 L15.9922,26.6142 Z" id="Fill-6" fill="#E91D1F"></path>
                <path d="M28.1333,36.8896 C29.6533,37.2876 31.2253,37.4906 32.8083,37.4906 L32.8203,37.4906 C33.9833,37.4906 35.1483,37.3806 36.2813,37.1656 L36.0943,36.1836 C35.0223,36.3866 33.9213,36.4906 32.8203,36.4906 L32.8093,36.4906 C31.3113,36.4906 29.8233,36.2986 28.3873,35.9226 L28.1333,36.8896 Z" id="Fill-8" fill="#E91D1F"></path>
                <path d="M44.4155,4.6923 C42.2845,2.9683 39.7555,1.7233 37.1005,1.0913 L36.8695,2.0643 C39.3795,2.6623 41.7715,3.8383 43.7865,5.4693 L44.4155,4.6923 Z" id="Fill-10" fill="#E91D1F"></path>
                <path d="M17.2466,11.166 L16.3546,10.715 C15.1046,13.182 14.4386,15.843 14.3766,18.624 L15.3766,18.645 C15.4356,16.016 16.0646,13.499 17.2466,11.166" id="Fill-12" fill="#E91D1F"></path>
                <path d="M50.251,19.8349 L51.25,19.8799 C51.263,19.6019 51.269,19.3219 51.269,19.0419 C51.269,16.2579 50.664,13.5819 49.471,11.0899 L48.568,11.5219 C49.697,13.8779 50.269,16.4079 50.269,19.0429 C50.269,19.3089 50.263,19.5719 50.251,19.8349" id="Fill-14" fill="#E91D1F"></path>
                <g id="Group-18" transform="translate(0.000000, 36.710900)">
                    <mask id="mask-28" fill="white">
                        <use xlink:href="#path-27"></use>
                    </mask>
                    <g id="Clip-17"></g>
                    <path d="M64.9951,29.2686 C63.1561,12.9816 48.8281,1.2436 32.8201,0.8826 C16.8191,0.5226 3.1811,13.1706 0.7341,28.6046 C-0.6699,37.4616 0.3711,47.0606 0.3711,55.9986 C0.3711,59.2236 5.3711,59.2236 5.3711,55.9986 L5.3711,33.8026 C5.3711,18.4036 17.4921,6.2276 32.8201,5.8826 C47.9541,5.5416 60.2681,18.7566 60.2681,33.5456 L60.2681,55.9986 C60.2681,59.2236 65.2681,59.2236 65.2681,55.9986 C65.2681,47.1766 65.9861,38.0466 64.9951,29.2686" id="Fill-16" fill="#E91D1F" mask="url(#mask-28)"></path>
                </g>
                <mask id="mask-30" fill="white">
                    <use xlink:href="#path-29"></use>
                </mask>
                <g id="Clip-20"></g>
                <polygon id="Fill-19" fill="#E91D1F" mask="url(#mask-30)" points="46.882 79.7109 47.882 79.7109 47.882 71.7109 46.882 71.7109"></polygon>
                <polygon id="Fill-21" fill="#E91D1F" mask="url(#mask-30)" points="46.882 95.7109 47.882 95.7109 47.882 87.7109 46.882 87.7109"></polygon>
                <polygon id="Fill-22" fill="#E91D1F" mask="url(#mask-30)" points="17.548 95.7109 18.548 95.7109 18.548 87.7109 17.548 87.7109"></polygon>
                <polygon id="Fill-23" fill="#E91D1F" mask="url(#mask-30)" points="17.548 79.7109 18.548 79.7109 18.548 71.7109 17.548 71.7109"></polygon>
            </g>
        </g>
    </g>
</svg>